<mxfile host="Electron" modified="2023-05-16T18:02:19.315Z" agent="Mozilla/5.0 (Windows NT 10.0; Win64; x64) AppleWebKit/537.36 (KHTML, like Gecko) draw.io/21.2.8 Chrome/112.0.5615.165 Electron/24.2.0 Safari/537.36" etag="5CSdMvLaD0EzG-m2lEJU" version="21.2.8" type="device" pages="3">
  <diagram id="BA_ZAep8j2TU80RyQWNJ" name="Logic">
    <mxGraphModel dx="1276" dy="656" grid="1" gridSize="10" guides="1" tooltips="1" connect="1" arrows="1" fold="1" page="1" pageScale="1" pageWidth="850" pageHeight="1100" math="0" shadow="0">
      <root>
        <mxCell id="0" />
        <mxCell id="1" parent="0" />
        <mxCell id="htQcZJmgT7OhWwuPIG0S-3" value="" style="group" parent="1" vertex="1" connectable="0">
          <mxGeometry x="13" y="920" width="60" height="30" as="geometry" />
        </mxCell>
        <mxCell id="htQcZJmgT7OhWwuPIG0S-1" value="Data" style="rounded=0;whiteSpace=wrap;html=1;align=left;" parent="htQcZJmgT7OhWwuPIG0S-3" vertex="1">
          <mxGeometry width="60" height="30" as="geometry" />
        </mxCell>
        <mxCell id="htQcZJmgT7OhWwuPIG0S-2" value="" style="html=1;verticalLabelPosition=bottom;labelBackgroundColor=#ffffff;verticalAlign=top;shadow=0;dashed=0;strokeWidth=2;shape=mxgraph.ios7.misc.down;strokeColor=#0080f0;" parent="htQcZJmgT7OhWwuPIG0S-3" vertex="1">
          <mxGeometry x="38" y="12" width="12" height="6" as="geometry" />
        </mxCell>
        <mxCell id="htQcZJmgT7OhWwuPIG0S-10" value="" style="group" parent="1" vertex="1" connectable="0">
          <mxGeometry x="73" y="950" width="60" height="30" as="geometry" />
        </mxCell>
        <mxCell id="htQcZJmgT7OhWwuPIG0S-11" value="Data" style="rounded=0;whiteSpace=wrap;html=1;align=left;" parent="htQcZJmgT7OhWwuPIG0S-10" vertex="1">
          <mxGeometry width="60" height="30" as="geometry" />
        </mxCell>
        <mxCell id="htQcZJmgT7OhWwuPIG0S-12" value="" style="html=1;verticalLabelPosition=bottom;labelBackgroundColor=#ffffff;verticalAlign=top;shadow=0;dashed=0;strokeWidth=2;shape=mxgraph.ios7.misc.down;strokeColor=#0080f0;" parent="htQcZJmgT7OhWwuPIG0S-10" vertex="1">
          <mxGeometry x="38" y="12" width="12" height="6" as="geometry" />
        </mxCell>
        <mxCell id="htQcZJmgT7OhWwuPIG0S-15" value="" style="group" parent="1" vertex="1" connectable="0">
          <mxGeometry x="73" y="920" width="80" height="30" as="geometry" />
        </mxCell>
        <mxCell id="htQcZJmgT7OhWwuPIG0S-5" value="operation" style="rounded=0;whiteSpace=wrap;html=1;align=left;container=0;" parent="htQcZJmgT7OhWwuPIG0S-15" vertex="1">
          <mxGeometry width="80" height="30" as="geometry" />
        </mxCell>
        <mxCell id="htQcZJmgT7OhWwuPIG0S-6" value="" style="html=1;verticalLabelPosition=bottom;labelBackgroundColor=#ffffff;verticalAlign=top;shadow=0;dashed=0;strokeWidth=2;shape=mxgraph.ios7.misc.down;strokeColor=#0080f0;container=0;" parent="htQcZJmgT7OhWwuPIG0S-15" vertex="1">
          <mxGeometry x="60" y="12" width="12" height="6" as="geometry" />
        </mxCell>
        <mxCell id="htQcZJmgT7OhWwuPIG0S-16" value="" style="group" parent="1" vertex="1" connectable="0">
          <mxGeometry x="153" y="920" width="80" height="30" as="geometry" />
        </mxCell>
        <mxCell id="htQcZJmgT7OhWwuPIG0S-17" value="operation" style="rounded=0;whiteSpace=wrap;html=1;align=left;container=0;" parent="htQcZJmgT7OhWwuPIG0S-16" vertex="1">
          <mxGeometry width="80" height="30" as="geometry" />
        </mxCell>
        <mxCell id="htQcZJmgT7OhWwuPIG0S-18" value="" style="html=1;verticalLabelPosition=bottom;labelBackgroundColor=#ffffff;verticalAlign=top;shadow=0;dashed=0;strokeWidth=2;shape=mxgraph.ios7.misc.down;strokeColor=#0080f0;container=0;" parent="htQcZJmgT7OhWwuPIG0S-16" vertex="1">
          <mxGeometry x="60" y="12" width="12" height="6" as="geometry" />
        </mxCell>
        <mxCell id="htQcZJmgT7OhWwuPIG0S-19" value="" style="group" parent="1" vertex="1" connectable="0">
          <mxGeometry x="233" y="920" width="80" height="30" as="geometry" />
        </mxCell>
        <mxCell id="htQcZJmgT7OhWwuPIG0S-20" value="operation" style="rounded=0;whiteSpace=wrap;html=1;align=left;container=0;" parent="htQcZJmgT7OhWwuPIG0S-19" vertex="1">
          <mxGeometry width="80" height="30" as="geometry" />
        </mxCell>
        <mxCell id="htQcZJmgT7OhWwuPIG0S-21" value="" style="html=1;verticalLabelPosition=bottom;labelBackgroundColor=#ffffff;verticalAlign=top;shadow=0;dashed=0;strokeWidth=2;shape=mxgraph.ios7.misc.down;strokeColor=#0080f0;container=0;" parent="htQcZJmgT7OhWwuPIG0S-19" vertex="1">
          <mxGeometry x="60" y="12" width="12" height="6" as="geometry" />
        </mxCell>
        <mxCell id="htQcZJmgT7OhWwuPIG0S-22" value="" style="group" parent="1" vertex="1" connectable="0">
          <mxGeometry x="133" y="950" width="80" height="30" as="geometry" />
        </mxCell>
        <mxCell id="htQcZJmgT7OhWwuPIG0S-23" value="operation" style="rounded=0;whiteSpace=wrap;html=1;align=left;container=0;" parent="htQcZJmgT7OhWwuPIG0S-22" vertex="1">
          <mxGeometry width="80" height="30" as="geometry" />
        </mxCell>
        <mxCell id="htQcZJmgT7OhWwuPIG0S-24" value="" style="html=1;verticalLabelPosition=bottom;labelBackgroundColor=#ffffff;verticalAlign=top;shadow=0;dashed=0;strokeWidth=2;shape=mxgraph.ios7.misc.down;strokeColor=#0080f0;container=0;" parent="htQcZJmgT7OhWwuPIG0S-22" vertex="1">
          <mxGeometry x="60" y="12" width="12" height="6" as="geometry" />
        </mxCell>
        <mxCell id="htQcZJmgT7OhWwuPIG0S-25" value="" style="group" parent="1" vertex="1" connectable="0">
          <mxGeometry x="133" y="980" width="60" height="30" as="geometry" />
        </mxCell>
        <mxCell id="htQcZJmgT7OhWwuPIG0S-26" value="Data" style="rounded=0;whiteSpace=wrap;html=1;align=left;" parent="htQcZJmgT7OhWwuPIG0S-25" vertex="1">
          <mxGeometry width="60" height="30" as="geometry" />
        </mxCell>
        <mxCell id="htQcZJmgT7OhWwuPIG0S-27" value="" style="html=1;verticalLabelPosition=bottom;labelBackgroundColor=#ffffff;verticalAlign=top;shadow=0;dashed=0;strokeWidth=2;shape=mxgraph.ios7.misc.down;strokeColor=#0080f0;" parent="htQcZJmgT7OhWwuPIG0S-25" vertex="1">
          <mxGeometry x="38" y="12" width="12" height="6" as="geometry" />
        </mxCell>
        <mxCell id="htQcZJmgT7OhWwuPIG0S-31" value="" style="group" parent="1" vertex="1" connectable="0">
          <mxGeometry x="293" y="950" width="80" height="30" as="geometry" />
        </mxCell>
        <mxCell id="htQcZJmgT7OhWwuPIG0S-32" value="operation" style="rounded=0;whiteSpace=wrap;html=1;align=left;container=0;" parent="htQcZJmgT7OhWwuPIG0S-31" vertex="1">
          <mxGeometry width="80" height="30" as="geometry" />
        </mxCell>
        <mxCell id="htQcZJmgT7OhWwuPIG0S-33" value="" style="html=1;verticalLabelPosition=bottom;labelBackgroundColor=#ffffff;verticalAlign=top;shadow=0;dashed=0;strokeWidth=2;shape=mxgraph.ios7.misc.down;strokeColor=#0080f0;container=0;" parent="htQcZJmgT7OhWwuPIG0S-31" vertex="1">
          <mxGeometry x="60" y="12" width="12" height="6" as="geometry" />
        </mxCell>
        <mxCell id="htQcZJmgT7OhWwuPIG0S-34" value="&quot;Text&quot;.concat(a.length()).toUpperCase().slice(a.multilpy(2),b.multiply(2))" style="text;html=1;align=center;verticalAlign=middle;resizable=0;points=[];autosize=1;strokeColor=none;fillColor=none;" parent="1" vertex="1">
          <mxGeometry x="438" y="920" width="400" height="30" as="geometry" />
        </mxCell>
        <mxCell id="htQcZJmgT7OhWwuPIG0S-35" value="" style="group" parent="1" vertex="1" connectable="0">
          <mxGeometry x="233" y="980" width="60" height="30" as="geometry" />
        </mxCell>
        <mxCell id="htQcZJmgT7OhWwuPIG0S-36" value="Data" style="rounded=0;whiteSpace=wrap;html=1;align=left;" parent="htQcZJmgT7OhWwuPIG0S-35" vertex="1">
          <mxGeometry width="60" height="30" as="geometry" />
        </mxCell>
        <mxCell id="htQcZJmgT7OhWwuPIG0S-37" value="" style="html=1;verticalLabelPosition=bottom;labelBackgroundColor=#ffffff;verticalAlign=top;shadow=0;dashed=0;strokeWidth=2;shape=mxgraph.ios7.misc.down;strokeColor=#0080f0;" parent="htQcZJmgT7OhWwuPIG0S-35" vertex="1">
          <mxGeometry x="38" y="12" width="12" height="6" as="geometry" />
        </mxCell>
        <mxCell id="htQcZJmgT7OhWwuPIG0S-38" value="" style="group" parent="1" vertex="1" connectable="0">
          <mxGeometry x="293" y="980" width="80" height="30" as="geometry" />
        </mxCell>
        <mxCell id="htQcZJmgT7OhWwuPIG0S-39" value="operation" style="rounded=0;whiteSpace=wrap;html=1;align=left;container=0;" parent="htQcZJmgT7OhWwuPIG0S-38" vertex="1">
          <mxGeometry width="80" height="30" as="geometry" />
        </mxCell>
        <mxCell id="htQcZJmgT7OhWwuPIG0S-40" value="" style="html=1;verticalLabelPosition=bottom;labelBackgroundColor=#ffffff;verticalAlign=top;shadow=0;dashed=0;strokeWidth=2;shape=mxgraph.ios7.misc.down;strokeColor=#0080f0;container=0;" parent="htQcZJmgT7OhWwuPIG0S-38" vertex="1">
          <mxGeometry x="60" y="12" width="12" height="6" as="geometry" />
        </mxCell>
        <mxCell id="htQcZJmgT7OhWwuPIG0S-43" value="&quot;Text&quot;.concat().toUpperCase().slice()" style="text;html=1;align=center;verticalAlign=middle;resizable=0;points=[];autosize=1;strokeColor=none;fillColor=none;" parent="1" vertex="1">
          <mxGeometry x="463" y="960" width="220" height="30" as="geometry" />
        </mxCell>
        <mxCell id="htQcZJmgT7OhWwuPIG0S-44" value="arg1.length" style="text;html=1;align=center;verticalAlign=middle;resizable=0;points=[];autosize=1;strokeColor=none;fillColor=none;" parent="1" vertex="1">
          <mxGeometry x="468" y="1000" width="80" height="30" as="geometry" />
        </mxCell>
        <mxCell id="htQcZJmgT7OhWwuPIG0S-45" value="&lt;div style=&quot;text-align: left;&quot;&gt;&lt;span style=&quot;background-color: initial;&quot;&gt;Problems&lt;/span&gt;&lt;/div&gt;1. Overlapping of sibling operation children" style="text;html=1;align=center;verticalAlign=middle;resizable=0;points=[];autosize=1;strokeColor=none;fillColor=none;" parent="1" vertex="1">
          <mxGeometry x="13" y="1020" width="250" height="40" as="geometry" />
        </mxCell>
        <mxCell id="htQcZJmgT7OhWwuPIG0S-46" value="&lt;div style=&quot;text-align: left;&quot;&gt;&lt;span style=&quot;background-color: initial;&quot;&gt;Solutions&lt;/span&gt;&lt;/div&gt;1. Keep it in a textual, let allow user to extract the logic in to another statment&amp;nbsp;&amp;nbsp;" style="text;html=1;align=center;verticalAlign=middle;resizable=0;points=[];autosize=1;strokeColor=none;fillColor=none;" parent="1" vertex="1">
          <mxGeometry x="13" y="1060" width="440" height="40" as="geometry" />
        </mxCell>
        <mxCell id="htQcZJmgT7OhWwuPIG0S-47" value="arg1.multilpy(2), arg2.multiply(2)" style="text;html=1;align=center;verticalAlign=middle;resizable=0;points=[];autosize=1;strokeColor=none;fillColor=none;" parent="1" vertex="1">
          <mxGeometry x="618" y="1000" width="200" height="30" as="geometry" />
        </mxCell>
        <mxCell id="htQcZJmgT7OhWwuPIG0S-48" value="" style="endArrow=classic;html=1;rounded=0;edgeStyle=orthogonalEdgeStyle;" parent="1" edge="1">
          <mxGeometry width="50" height="50" relative="1" as="geometry">
            <mxPoint x="549" y="980" as="sourcePoint" />
            <mxPoint x="487" y="1010" as="targetPoint" />
            <Array as="points">
              <mxPoint x="549" y="990" />
              <mxPoint x="487" y="990" />
            </Array>
          </mxGeometry>
        </mxCell>
        <mxCell id="htQcZJmgT7OhWwuPIG0S-49" value="" style="endArrow=classic;html=1;rounded=0;edgeStyle=orthogonalEdgeStyle;" parent="1" edge="1">
          <mxGeometry width="50" height="50" relative="1" as="geometry">
            <mxPoint x="668" y="980" as="sourcePoint" />
            <mxPoint x="638" y="1010" as="targetPoint" />
            <Array as="points">
              <mxPoint x="668" y="990" />
              <mxPoint x="638" y="990" />
            </Array>
          </mxGeometry>
        </mxCell>
        <mxCell id="zzHU8eR-_D-ccagIITGc-1" value="&quot;Text&quot;.concat(&quot; Case&quot;)" style="text;html=1;align=center;verticalAlign=middle;resizable=0;points=[];autosize=1;strokeColor=none;fillColor=none;" parent="1" vertex="1">
          <mxGeometry x="76.9" y="800" width="140" height="30" as="geometry" />
        </mxCell>
        <mxCell id="zzHU8eR-_D-ccagIITGc-2" value="Normal:&amp;nbsp;" style="text;html=1;align=center;verticalAlign=middle;resizable=0;points=[];autosize=1;strokeColor=none;fillColor=none;" parent="1" vertex="1">
          <mxGeometry x="26.900000000000006" y="800" width="70" height="30" as="geometry" />
        </mxCell>
        <mxCell id="zzHU8eR-_D-ccagIITGc-3" value="Hover:&amp;nbsp;" style="text;html=1;align=center;verticalAlign=middle;resizable=0;points=[];autosize=1;strokeColor=none;fillColor=none;" parent="1" vertex="1">
          <mxGeometry x="31.900000000000006" y="830" width="60" height="30" as="geometry" />
        </mxCell>
        <mxCell id="OJCtmjm5fkAvYqRHg_Iz-1" value="" style="shape=image;verticalLabelPosition=bottom;labelBackgroundColor=default;verticalAlign=top;aspect=fixed;imageAspect=0;image=data:image/png,iVBORw0KGgoAAAANSUhEUgAAAugAAACOCAYAAABjaP3+AAAAAXNSR0IArs4c6QAAAARnQU1BAACxjwv8YQUAAAAJcEhZcwAADsMAAA7DAcdvqGQAADUUSURBVHhe7Z0L1F3TufeXnlZcGpceROqWEkXDQQ9fjBKKqJ4mtEnQxEdF8UWFc1w6KtovTVIdQ4wi6SGRtC4JSopwGuIMEhyhVGkHIi6VfOLWiEvR1CXpxbd/K3Ml+93vmnOvy1x7r7Xf/2+Md+y517vXfV7+85nPfOYGBx144MeBEEIIIYQQohR8wnwKIYQQQgghSoAEuhBCCCGEECVCAl0IIYQQQogSIYEuhBBCCCFEiZBAF0IIIYQQokRIoAshhBBCCFEiJNCFEEIIIYQoERLoQgghhBBClAgJdCGEEEIIIUqEBLoQQgghhBAlQgJdCCGEEEKIEiGBLoQQQgghRInY4KADD/zYpEO232EHkxJCCCGEEEK0gldfecWkZEEXQgghhBCiVEigCyGEEEIIUSIk0IUQQgghhCgRTX3Q6/1hhOipNJuboXIihBBCiDS4NLcs6EIIIYQQQpQICXQhhBBCCCFKhFxchEiAXFyEECIbxxxzTPCv++0XbLnllsHmm28e9O7dO/yM48033ghWr1kTppcvXx6sXLkyrF9vvfXWcJsQnYRLcycW6DfNmRNsv/32YbqeQQcdZFLdybIPBfk/zj7bfCsXr776ajBq5EjzTZSViyZPDg6KyWM/nTrVWsk320cCXQiRlb333ju45NJLg4022shsWcuSJUuC08eMMd+68+BDD5nUepq1Q1n28c22224bjBw1Kthnn32CXXbZxWzND/fxTO2ZzZs3L3jyySfNVtGTKKJ9j+Pwww8PJk6aZL6t56Fa+bpg3DjzLT8ugS4XFyGEEKIgEKsTJkzoJs6xFE+sbe8k6IjMmDkzuKUmekaMGOFVnAMGv68ceWQw7oILzBYhiuHee+8N7rn7bvNtPQj9U0491XwrFgl0IYQQoiCwwm29zTbm21o++uijYNq0acHrr79utlSbSJhfUbunAQMGmK1CVJsLL7wwWLZsmfm2npEjR4Z5vmgk0IUQQogCwNIWJ1gXPfBAaKHrBMaPHx+670iYi05k3Pnnhx3qehgNY1SsaCTQRVvBz2vq1KnBnfPnmy1CCOEX3EzOPuecYNbs2aE/aivAwoalrRH8qLHMVR2eKfPMcDlpdN8RolNglGvmjBnm23oYFSu6LpFAFy2nXpQz/MvsftuMfiGEyEK9KC/KJ9rFOeee2024YombfNFF5lt1oQ6/6uqrY4NAxMF9MyEWn14m5h17zDFhsIi4P/4/a9ascDIenZlG66UQrYaJpHGuLvijUxaKonQCnQcRV2jT/NmgwMf9PumfIrjkhx6nRLkQomjaIcojcG2JO+/jjz9e+egjCBImaSapvxHlCO4jBg8Oo9UwckAb7/K95/9XX3VVGCmDNpd9EewcS2JdtIs4VxcYO3asSflHFnQhhBDCE1juhw0bZr6t57333vManq0dROK8mUsLYvrMmnBBlNvC2KUBwc6xTjzhhGDu3LnhsxSildCpZO5II7i6MFJXBBLoQgghhCdYxyPOurxw4UKTqiZJxDnCGYs5YrqIkQJE0tQpU5yx44UoCkaA4jqHQ4YMCTvmvpFAF0IIITxAI73ffvuZb+uhUUdYVhXui6F8lzgnrvupp5zixWIuRFmJ62hTLopYYFMCXQghhPAAjXSciK269XzyxRd3i+VeDy4tw4cP75i47kLYoKMdZ0WnY+7bii6BLoQQQuSkU63ntgmvEUS3kMuJ6Em0yoougS6EEELkZOSoUR1nPafTERfLPQK3FqJbCNGTcFnRfSKBLoQQQuRk8ODBJrUewrLNuekm86162Fx2gHubNGmS3FpEj+TR3/zGpNZDWfEZ0UUCXQghhMgBEU7iIrfg/lFVAWtz2Ykg5FzVY7oLkZWf//znJtWVgQMHmlR+NjjowAM/NumQ7XfYwaTW8uorr4SfLOkbt2oYC/jYyLKPDx586CGT6goLFbUqDi1+e/379w/69esX9O7du1vlzQppq1evDpYtXRo8/PDDwb333mv+09mwUBGrb8XhK1/YzkH4L1uEgWb7NJaLRqJy0g5YUvzQww4L+u20U9Cn1qj22nDDbhO6sHa99dZb4bDca7W8N2/evEIbVwTL4COOCPr27Rv06tUr2GqrrbpZ4riWVatWBStrAmb5Sy8F9993X+kafJ7t0UcfHexSK8ub1cpx43OlHHMfzz33XGgpbZcYQ0wNGTp0XZ0DcXVvVO+sWLEiWLhggfd655hjjgkXIUv63hc//XQY47oIWtkOzJg5MxgwYID5tp6JEybkesZx98A7dC2al2WfOFx1Ne9w6JAh5lt1SVpucOVZvWZNsHz58kLKjY3o+vbac8+wbo/TElF54rMVdTu0U98U0b5nxVbuWQMg6TuwaW6QQPcIhYkhQawOtmFBG1QAix58MNNkottuu806w57Z9b4m8DB0w8p8cWApGn3SSWGaRrqIkEMRzfJPTxHovI+DBw1yRldwQYXOMB2WAB/CEjH7nTPOCCeUpc3/EVTsjz76qPdJdba6yCZc6GCc+K1vpV6FkvKGKGuVUKesDT3qqMyrZdJxW1ITyddee23mRp18uM8+++S6BlbYpKylfW629+qDNO3FgoULYzsieUVsOwX6nfPnx44KAIsFVXXiK+30aaedFuy777656k7mFhT1DPKWa65v8eLFmcqUjXbpm0bKJNDpqIwePdp8W889d98dxkxPgheBXiXaIdDJAFkybiNk5GnTpqXqcSImWD7fRl4rDlA4r7/hhtj7o4FlhbeoImi3QC+CMgl0BBH+rrbGMy15ywXC/Jxzz83cmMRBAzOrJhrzVJ71pBHoU2uVNlbgrFAeZs6Y4e3a46CMjaj9+RKnaQVcnsbaRpbnVgaBbmukf1frdJxdYD1YJLZ7Ah8dj3YQGRDiLJ5Zob3GD9+XxZq2/NRa58FXns4rQCPaqW/KTlznnPsk7GgSXJpbPug5oaGikaB35qOhokeP2E4z0YDMTmNggwKfl3G1hsp2f3Nq998qi2FPhgaG0RJGMXyJ87yMHz8+uKJW4foU58D9IQAZQmwVlGWebx5xDpQTrj1NGU4K18gz4fhFCdNm0Dmgs+6rzoso8rkVCe4Hcdxxxx0mVT32339/k+pO3OS4shPVUz7FOdBeX3LppaGwzgv5nra/XeU6jjLom7Lz2muvmdR6uE/a67xIoOeAQklDVUSBQoSlycSTaz1cLBtxcH00qlnhPm2iBdeWonxIxXqwaNEQZB2S9Q0V96zZs4OvHHmk2VIMNKiIZs5XJBx/+vTpXp8vZdhHwx3BsbhG3yIjLdQFPoV5Izy3PPVVq+m/664mtR5GA6psJXS1afg4V40vFFhmKAvjLrggVx1FW29zH20XZdI3ZeaJJ54wqa4wLywvEugZIfNSKJs1VAx1YN1muLT+jyHlZqRpqLBg4xJgY/TJJ5tUemwWeBqhcYqBWzhUZAw3JxFFtvyGbzT/80EkZpNYzek00olrvB7+2E4eagaimfMVKdKnTJ0aK865fp5d47UnKb+A648PovomSQfCds3ki6TXnRfOE5cP2ZYkH1JfFd0p8wFWsrjRrDirWlWw3RPw7so2kdsH1EPk2cb8yh9lyWb8iqBuZrXVLGB8aSbObWWaP+rRZteXlrLpmzJDcIM4dt99d5PKjnzQM0DDcdXVVzvdDChMV9ZEhasy4zjN/DipOOr9u5uBVdMmnNJMXIhw9exnzZoVaz2ngmfRjjiY9W3rkfN+klDUPAIX7fJBd/mCRpBHmGRHFJFmjWf0burzXNpykcTvl/x/y803J7IiUkkT8aWZZbh+InJaXD7oRGZonEDE9rm33ur034zKb9zko3ry1ju8M0ZPmjWWSZ85100eqJ/HwP0m9UGPm3BFHmSyKfeaxOeVd3788cc7OxxJnhv1U58+fcy3rtjeS/TOm4HwaHYvtvKZpa4tC646h2dSRb/6uPKPqMVdJ2mUEfLakCFDnOUwrc83ZdE2twu4xttvvz3RKDX1BBGnBh5wwLpyncUHvcz6pqzETajm3SWZq+HS3BLoGXAJFF7KlMsuSzW8SW8VS5utQKSpFF0FPm1hcB0rq1iyzaaGdkz+TEo7BHoSKwZ5A/emtBVcVHnyLtKUC9f7AywqWScBIdqwnLoahqzCx1ZmKa+N50t7Dq57zOmnOxvZrJPqeE/NXG8QnJMvuiiTZTMSHYTgzCLQqVPm1xqnLCEmm91bnucGrQgWYJtQ7GNifrtwlfGqRm+pL//UUfPvuiuTa2azOhnhmiZqmutZc6ysEaEo13TAs0y0L7O+KSu2cIvH1tqGZu/Ppbnl4pISJpvYMi8F/9RTTkldMfP7H3z/+2FjFwcNAL3jJJAZmLQZB5UKkz2TYpsYynWOk2tL4YwdO9YpzmksqdiyVODsg0ihAVi5cqXZ6gYh6hLnNChnnHFGZmFCQ0L5oRzZOPiQQ0Jh54vGRoNnmrYDwHXbyhxwDqySWaAMusQ5zxxhndXtALFFpz2JRbkRhC77coyseZD8Yqv3eG407mWG2NRxVFWcQxQPPI4qGuwiyGeUb6JrZJ03xXsl0pCNtJPlsS7HgRDOE66VMkldShlNQ9n1TVkh/nwcrvYyCRLoKUAYIBDiIPPR2GQtUDSwroJ/cgofciofrGpxJC0MNIxxliFQ1JbiwbLiEma+LFlUnkmPg0uCDfIblqO8+aKZaKPDguW/CPI8U8oco0o2XFExbNAhspVBSGuts8EzT2NRpkOHeGAfH+8b9ywbuD6VGRZiasTVwaw6aa2xZYEOaNSZzAvPwNa+Uj9RbpNAG2szwOB646NspTlGVfRNGXn22WdNqiuu+jsJEugpQBjYChSZL2+BchX8AZZQXjYY8raJHIbommGbGIoIyWp9EMmgorRZVsCXOE8DQ6a2DgP57ByPoply5KrMeTY+rehAvs77TK+/7jqT6o7NKuWCOOc2fInzLPCcfFqIcY+x4bLmthvyYFx78OdVq0yqmmTJq2XHR2eyHhZTs5FUlG255ZYm1R2b4CuSKumbsmEbqXC94yRIoCfEJZpoLH1ZFlidLA4KTprhXnqsix54wHzrChWwq5ePGIurpBFicm0pHldF6UNIZmHgwIEm1Z0iRlQoTzaLNM/GNgk5K/hV5gXRarOe4q6RplNB+bQJpWj4u1OgrrI9N5YRLyu24esVK1aYVGdBvhNrcXUq84qydlA1fVM2bO2fze8+KRLoCUEQ2EQTs5l9gXXaZvlOO9yLL62t4bO5K1BQmTQWh1xbWsNee+1lUt3xISTTgkuUTSxiESlqRMVlkWZpeV/QAGX14W7k5ZdfNqnupPFHdJV1GrlOK4e255a3gSuSzbfYwqS6knROR9VYVfGRAZ9Q/lyd8bzY8lZRVFHflI240YE4F7g0SKAnxCYIeCm+GvcIIirEkWW4l4gaceCugKW8EZv1Vq4trYHJhLYK3qeQTAOhu2y4hnrz4rJI+1y59LHHHjOp/Cx++mmTyg6dZFvISayY7RhBKZoPLY12menfv79JdaXKEylFclavWWNS/skyZyUPVdU3ZcfW6UmKBHpCtttuO5PqyjM10eQbW0SFLMO9iBybfxSW8vphdyylcVY+uba0Dtuy4UCM63bgWoWvaLH4/B/+YFLdSToZqxnz77zTpPKz/MUXTao7SX1ThwwdalLdqeIy60lYunSpSQlRDVbmHMVyRVihgx5nQCuKquqbMmHLD2lcGxuRQE+Aa7Y1ixy0iqxDZ0yQifMf5J7qI2LYJo/KtaV17LjjjibVFd6fz4l5abAN09l8xH1CjFwbeWfIAxZ6n3nbxztyddKquMx6Et57912Tqg4bW9oEX/66ZaPXhhualIC8oz7UO7ZJk9Cq5fCrrm/Kgi0/5Am1KIGegL3+5V9MqjvtEk1pYcGCOJgYguUc14o4P2O5trQWW6SUpS+8YFKthbxhq7xbMRnOJXZsAikNRQ5TZ8UWW5vORDtcnHyCGGDkg3jLhBJlUZTbbruti6GgKtjeU6fiCvvayZBf+SO/sjAVeZaVI/PGuAZWK3aBSOd8vkYL4+gEfdOpaCXRBLhW+2o1WZbujbCteocIx0ra2IPFtcX3MryuZ9nTVxKlErYJlXaEVgTXNc2aNaslnbcFCxfGdhKwPiVd/dK2Ol6aYyQlb/1j27+doRXTgAgnkgV1DZ0ohCzD11ktZFnrhXatKF3meiwJtucGVb83G9RzTMxkXgF5l7xKm2gzTrhIW6fMmj070ZwajsucH9/tQKfom3Zje47N7kkrieakb9++JlVtWBI+bgY1lUNc4ynXlvLQro6yq2PSKrcE26SinsY777xjUuWCURYs4ggNOlMTJ00KO3U0Voh0RGzVh697Ei63iyqHwquH+0BQ0cmiQ0J+HT16dJhn8f8mz2YR51lgfpdtMnw9XBMWdcoYxjbKnQ86Rd90IhLoCejVq5dJVRvENqI7CXJtaT0un+oX2uTi0qdPH5PqjmuSk8iGayi7bOH7EAgzZs4Mrpg2LfjKkUeGHf1WiRrRHvp97nMmVU0oX4hyOpGI8bgRkFZDu8wqna6OUT2UMdoKyh33gntqHjpF33QiEug9DER3s8l9itpSPsroe6zRldZSFndDohJgwUMg2MJBiupii7IBrgnMZYbOJGIWS3kZRHkj1KW4xdxz993WOOFxcC9Y/vGJb2XUF9EaJNB7IHfecYdJxYNLgcSXEKIRxPn06dOdoz3NwFKIkYARGAQJPprMsRDlwBXy0hZlqszgznLJpZdmFuYIZvIsc0DIs+RV8qwrwlRWWFyQeV+cJ41Qx4UsmlDaKW5IQpNEE0GmjyvchL5bvHix+dYaWGI4jzU1amCbzcin4aSy8I0midop47MpwzXZyh+NZqdNEnVNym33BKqkdQdQN9LRJ9IPgo/5Cty/rePvuu+s+UyTRLOBtZnRERtnjh1bmWhCiFXCBydxvcIP/I033wznekTi21XebHWjrzqF8kaZYGXptHM40gQV6CR9005s+SHPJFEJ9ATYMjAFevjw4eZbNbBFcmmE3vt3zzvPe2GRQLfjejYTJ0xoS8gr1zW1SjBKoK+lqE5zUprVHVGDnqWRraJAt0XfqLpAB1wmbKKw3fkwDYTwdHUoacMXPfhgmGfTjhoXLdDrwc980KBBqVZQTirSO0nftJMiBLpcXBJgWyGqanFhaQSTDk1jcbAtXCSKwTUJkNBf7aAMKzzaVphbvXq1SXUOrsnAm2y6qUm1HiyRrroD0Tt0yJBQ+FbVApYW2zoAneBi4Fp3YeABB5hUuSGykK2NxgBFmFgEKCK27C6dzB0bfdJJ4egFZS2J+wsuL0kmkHaKvikreaJvSaAnwLViGMNQVYDrHHP66eZbV6io4go8vWoqOdEaXFb4PfbYw6RaiyuUYquuyWbJa8VCSa3GJW7bGQ7t2OOOM6nuYKnzYZHuFNrVmfbJHY55SpTHKkxItHUkaOsmX3RRJaOUUT9Q1o4YPDjRhNKRI0c21SidoG/KQL9+/UyqK3lGviXQE+CyItqG/8vG5IsvjvXDw9eOiupxy4SXgw85xFu8VeHGZT3dLmYIshVgrbHRimti1MdGGaz7RYCrSBwsnNIubEPrDOf7WDilmQtZGfng/fdNqvNAVNjyIQyuCcQywyiGrWNPW+fDXbDdHbFoQqkrhjpt/shRo8y3eDpB33QqEugJWP7iiybVnTzRDFoFw1xxDWxoSZg8OUzTK4+rkOXq0jqwjtgsIml8D33C0K+toW7FNbms9I8/9phJdRa2hZkQHO1wn6CTZJtkx8qGPnDF2y8rzz77rEl1pQptQhIWLlxoUt0hL+JzW1YGH3GESXUHf3Mf2DoArYT6GTcdl0gfOHCgScVTdX1TFuIMKK73kgQJ9ATQ27YJp90+/3mTKidYvxnmimP+/PldfO9mXXutSXVFri6t47XXXjOpriCQ8i5IkRWspHG04pr23Xdfk+oKnYZO9XVe5rBoHXXUUSbVOlzW7cVPPWVS+bAND5cZm2/pxpbOTNVgZMRlRce6WlZ/e5t1m3bcV70RN7GyXUyaNMmkutPsOqusb8pEnBFj9Zo1JpUNCfSE2IQTEylcw/DtxhZiKm5ompnGtkWM5OrSGp544gmT6k67hpUfc1iqi7wm8pttopJrElvVmTdvnkl1Z8Cee7bcL9Rl3fbhKsD9lEnsJMV27306yG/XZUWHc849t5R+yjbrtm10Ki3tMpbYoNPRbAFCF1XVN2XB9oxci34lQQI9IS7hNKKkGRirt63hY5JMHFMuuyy2N43Il6tL8TD8arNm8C7bUVkyR6Ed1/SdM84wqe5caxnt6QRobF2jFrZwhFWlyvcTN4TdzrkCvsGI4xqmRwgTG7+nTSYsow9+nknzVdQ3ZcI2yuiKzJYECfSENBNOZetRM/T4lSOPNN+6wsQ/2zAf220TRrnPIl1dZKFf61PosoSMPvnktjSGtjwBRVwTot+2jDzPx9cwdVlx+XaXybUgb+eMfLNfi/1cfU7uY2GbRuhEdVJdNm3aNGvbB1hZEelVuGebwSoN5HkfxykTVdM3ZaPfTjuZVFfyugBKoCcE4eQSKfh5F9FoUhlkEcVjx441qa7gU0jgfBe2CaOQ19XFtTzyfvvvb1I9mytrjZ2tssRiNaXJ+ysC8ozrmogS5AtEG6LfxvXXXWdSnUszyyWjWa3qqLmsQHknkdmiS/nANgqxzdZbm1R+XrOc49DDDjOp6oMrD/OVXCDSWU6/FUKONpFFs1y4fOfzdCqb1U1p8N2hsYVhdT2LiKrpm7Kx4447mlRX8roASqCnwCVSIhcQX5mYioBKiOHftAuUMLve5rvLRND6iaE2bBNGi3R12b8DBDrvbcbMmcGChQvDlQxZyS5to+UaxQAsGpzDh0BLWkGSZxY98ID51h0iuvi4JvbHGmfzIaWD58PvuQrceOONJtUdyqEvqyXHcAkelxUI63fWd05+aUd0IupGX+Lo4YcfNqmu2CxqVYUO45IlS8y3eMiTo0ePDt+rb/EJtK2s3kqb2MzP39ZxgqwuG83qprQQ/pBVPH2VYVtZsnVUG6mKvikb3Euc3kr63F1IoKegmUiJMnEeKwIvG8F0/Q03ZLJOIbhssUtxDUi6NLtrwmgeVxfX+algiqjYWwXvjveGawZ5ASi4NFppF/ZgFMNlQeUcNBZZrUE8ZxrSNBUkcXddlU50TVkrce7lqquvtnYueR5RWNCeAGXFNeLEc8JqmXXRGPIrnXmO4RI8dIhcDTfvnGMlhd8itOpdmGzHz4NrgtbJnqygtmfTf9ddTapzOH3MmKYiHXivV0ybFtYveQUdeYX8jaFj4qRJiTt0to4TRAaONHAf5PP6uslHnuVaKH+UwzRlqB72mzBhgvnWnYULFpiUmyromzIyZOhQk+pK3gmiIIGekmYihUyMIKNnnKbhpAKgR0nGxXc8EnhpIPPbht+oTMadf775lgzbhFHI4+piE/7cMxWN7bjcX7OhzXZCA2J7byy7nPZ5ETrL1QjQWCCwaWySCnXyGb+nAa0XSEk5p3Y+15Ap18RzSNM4c+38nnuxWad4DvjCJhn96STOrj0TV0eN/EbeSlPfkA8RBNQ1dOaT1DWuER3eOR2rZnmQ8ss18tt6ocW7beZCkQWXMEEcuIwM3EvS5xkXAYN8nLV+LDNJRTpQv1AX3Fl7t9TbCLtmdUL03Pk9ovyWWieV/F0vjJNAx6mZMSGJ9ToqKwjT+mugTLrKRBoof5RDymOauhx4pi6jBs8gqVEOyqxvyopt5D9px8jFBgcdeODHJh3SOBvVtfx4WcG1IA4mR/pYkpqGprE37YIMb+tNEf+XWf+uDJv0uincNtHFssAUvrTQiNkmm3Jfoywx1l1QsKl0XSDi62elE1uYEHM8p0GWEYIiabbSIeXElu8isuQ/KjYahyQVGkIHsRA3mx//RPJZnABOe11prgkxT2iztNdUD/dF1KE8ri00KFirGsmah134rn981TdMjsT/Ou44zZ4D10Dj2uyd8745VmOMcN71dtttF7s/dROL/tBBiyNPeUccuvIX10vIzvrlzqmTyStJ35etPsta51YBRKttpLYVJCm3CF1bnqoHsf3yyy93W/I+ygdxTJwwIVwMKe4ZJK1TXM+QOo9606YbXOUpgmN897zzUk+oL6u+KStxdQzP/oiEkX5cmlsCPSNpM3Eeklw3PWl6tnFQAbHaWFawZNjuM2sj1KzhdNGTBDqkEcRZyHJdXBMxkLO+w6T4EOdQZYEORdc3SZ5Dko51WrDGYpV1iak85T3PNSd9X7wbLL2N5K13yw5tDpMHi6qXXCQtty6jVVbmzp0b+uTbBLYPgZ6XvPVm2fRNWaEdZJSokaheS4JLc8vFJSMMtZ9xxhlhYSwSjt9saWIKk221UMA1IA+uyWpZXV1sk1BFd6hksYS4XB1aDdd06imnFJr/OTb3nVecdwJRfZPUvaAIECU0pr5I04hlhWsuuo7m3cS57SFuOtHNJYL1EU484YSW50nE5zMJz0n+8vn+I3FeZnwYNcqkb8rMsccdZ1JdcS3ulwYJ9ByQiekpY0WmUPiEoVcqA47fbIjKFarMR9QLfNhslTDnxbqbFo7J/XUSzRqqPBUReQBrnO+8RgWZ1Vcuyv+8R5dfelq4v6R5vyfB80ZwEG3B5/PmWM1WjIzA0sW7yZsHycdFi/MI5k0U3bm1LfRy9NFHm1RnEuXJM8eOLVyok+foINIpSDNqSz3immydBM5NufMpzpcuXeq1LgfeAc/Hh1GjLPqmzMRNWube6Lz6QALdA1QWFAoqjzwNJ4WAAjZr1qxg6JAhiSoDfMRtM9u5Fl9RL/C5sxVSXAeyRHXh/qj00jSevisKn7ieEXnDR0UU5TUqzTx5jXzGs6eCzFuZ8x7Jr1S4eYQQ+3IMfPfKbqVqJ3Ruo+edx8LFvhyDY6VpUHg3jGxkEWTsg5hrpW82QgNrYFrr/wfvv29SzbEt9DLwgANMqrOhbouEOnWTrw5RfZtIvUAHkfeZFiZbU9+lLS+cP+oUpJlsmYRoBCJvXc410gHh2fMOsjwfF+3UN2UG97k4w+jixYtNKj8d6YPebvBL+tKXvhTs0r9/0KtXr1jfVzL6qlWrwk9itjJJyncFUCXwQcUfj3Bvjc+Lyv7PtWeFlYqG0HcFlIQkPuiAu1EUDozCy7XPv+subz3qRpLkNa5h9Zo14UQerDZFXUsEw/os1LL77ruHPuq9e/fu5qse5f+VtXe5/KWXgvvvu0/W8ow0Pu+4SVmNz9tXOQrd60aNWnduW9ldVst38+bNa/s75npPO+20sLw0TlBGQDAxj2d0xx13pO642vydESRFl7kywrMmBF3/2rNmUiP1k23CYJQ/gXqKxbGIv+/DEtwI5YWRDfLAZrW6qdHPGhHP9Tz33HMtbW+ickwMfdrBuHozyqOrV68OJ94z+lnEM3IhfbMW27wmOkpp6jmX5pZAFyIBSQW6EKJngsAifGkjCD5GqoQQnYFtUjsjBGld91yaWy4uQgghRE6wmsW5/WBlSxPbWghRbmyr0V45fbpJ+UECXQghhPCArYHOury8EKJc0NmOc22hc+7bhU8CXQghhPCArOhCdDatsp6DBLoQQgjhCRpqJvM1cvzxx5uUEKKKsDhXnPWcKDpFTICXQBdCCCE8QUP9eEzcbaKFEJpNCFE9iEo0bNgw8209dMZ9hbNuRAJdCCGE8AjxuuNigQ8ZMiRs6IUQ1YKoLY1hL2HOnDmFheKUQBdCCCE8My0m5CIxwFn5WQhRHYj9zjotjSxbtqzQNQ4k0IUQQgjPsIBM3OqlLGKGL6sQovww4jV27FjzbT0swjTu/PPNt2KQQBdCCCEKAFeXuOXlR44cGS5sJIQoN6wM3rjaLEy57LLCV5ltupKoEKI5WklUCBEHFrirrr66m/8qPurDhw8334QQZYNJ3SNGjDDf1jN37txg6pQp5ls+tJKoEEII0QawsmFtawy9iFVuxsyZ5psQokzgd86k7kZY58CXOG/GOgu6LOdCZEcWdCGEEEKkQRZ0IYQQQgghKoIs6EIIIYQQQrQZWdCFyIlcWoQQQghRFFYLugSIEF2pLyOUD406CSGEEMIXsqALIYQQQghRUmRBFyIhzSzoKjNCCCGESELcKLws6D2Az3zmM+GS0jvttJPZIoQQQgghqoB3C/rWW28dHHrYYcGee+4Z7DlgQLclUp9++ungzTffDO6/7751aeGfc849Nxg6dGjwzjvvBCeecELw4Ycfmv+IrMiCLoQQQggfNNMQ3gT6oYceGpx11lndBHkz7r///lCs8ynWst122wW9NtooeLcmrv/0pz+Zrem4csaM4Atf+ELw17/+NTh9zJhg6dKl5j8iKxLoQggheiKMym+55ZbB3/72t+Cll14yW0UeChfojcL8zTfeCJ5esiS0jiO8w211VnIs65GVnX0j2O/yyy+XUK9x6aWXBp+tifS5t94a3Fr7ywLW88MHDw7efffdYNLEiWaryENRAl2jTkIIIUTPolCB/qMLL1wnsrMKbPY/7pvfDMUJsP8Px48P0z2VBx96KPz86dSpmQV61bi3Jj4Pr4nUdsN1QNy1+BboGnUSQggheiaFCHQsfjNnzlwnLBDUecUCYgXBD4j9MWPG9FhLYU8T6NH9rlmzJvxsh1BHmH/yk58MPvGJtfOmuZbG6/Al0BuFuUadhBBCiJ6Fd4FeL859C2mOjUhHkHSaSO/Tp094fxv26hX8kxGBH330UfDnP/859Ofi/zvuuGO4/bIpU8LP22+/PXhw0aIwzW8XL14cpnfddddgiy22CN1XXnjhhfB77802C48bbYuOV79fxF577RVstNFGwcsvvxysXLky3P/Tn/50KFCBCaU8d/5nA380zrHxJpusux/2++Mf/xh86lOfWncvjz32WPhpIxLn9cSJ4yK5/3/+Z929R+Bnd+iXv2y+rcWHQNeokxBCCFEsVRuVh9wCncmHCAOsfd85/XSzNZ7NaqIRIYnYQbglJc05qsCAAQOCr/7bvwUDBw4MNt9889BKu+GGGwZvv/128NSTTwYTJ04Mvv71rwdnnnVW+HvEMyBU//GPf4Tp1157LRh90klh+qLJk4ODDjooeKgmbmfPnh2cffbZocjmmGy7YNy44Jhjjgn+o7b91VdfDUaNHBnuF3HTnDnB9ttvH0y74org+eefD8bUnjHfN9544/AYK1asCB599NHgFzfcELz++utmr/UQuvHIr341OHjQoKDvZz9rtgbh/SxcuDD4e+19jz755HDboNp12iDjcr44WiXS48Q5+Laga9RJCCGEKJ4qjspDo4ZIFQedYfnIut1MOG+wwQbBV2si7uprrgkmX3yx2ZoMxAvn4Fycs8r07ds3uOD73w+OOuqo0ML861//Orj77ruDRQ88EEZo+awRuC+++GK4nb+IJUuWrNuG8G4ES/X5558fbFMTf1iqOfazzz5r/tucnXfeORhfe9Zkot/+9rfBwgULQms71vFvfOMbwchRo8wv17PVVlsFZ4wdG5x44onBZ/75n4Onnnoq3I+/t956K+wY/K9aRyQJZNaoADWCcI96nkVhE+e+aRx1Gj5smBe3FI7BsejIcuzwHLVzCSGEED2R+lF5dEQrtEQjaAvOG4lzqE8nJbEFHbGMZRsQ54gCFwj0I444Ihg+YkQo3P7vD35g/pMMhMZtt98ephEhVbUMnnLqqcHo0aNDYfaTSy4JHnn4YfOfta4me+yxR3DzzTebLWtp5oMeWdBxUcHa/ss5c7odI4kFnQ7Cktp7vOmmm9a5wWAdP/e884IvfvGLwfvvvx/GUK9/9id/+9vBt2t/f/nLX4Jf/dd/BXNqx8KtBth3RO28X/va14JevXqF21wW9IgHFi2yZt6iLOlZzpnVgq5RJyGEEKJYqjwqD5kt6Pi8Ala7ZuIcPv744+Cee+4JY3CnFeeAKIysjGf9+7+Hn1Wkf//+4eebtU5KvTgHRHGjsE4D8dJvuvHGzMfgHWF1rfdRxx9+Tk2wEz990003DQYecID5TxC65xx99NFhGov+jJoojMQ5sO9ll14a/L9ly8yWZBxy8MGhII2DwkaG90krOwQadRJCCCGKh7abNjyOVljSfY/KJxbo0cS2Vk5Gu/w//zP85NxVHbpfaXy4EdO4fmyzTbqQei6wYueJ8vKHP/whdsGBRx55JHjvvffC9C477xx+wr5f/GLo4sLE0xuuv95s7c7jv/udSSWHCZk2kU6GR1T7oJXiHLEcdWx/+MMfhp/NoMOzrNbBYXQkDXRo8UEHzilXFyGEEFVl7733DmbNnh16DKSBNjyau9dIkSIdbWET51m1RSKBHonztH6z+DKzmuUuu+xitqSj3opOiLkqsmDBguCVV14Jo6R873vfC44//vjgoEGDgt122838IjtvvPGGSWVj6QsvmFR3EOGwbd++4SfsUysw8M477zhXEvvT22+bVDoQ6bbeL6Ia15+shYv92L+VrjQadRJCCCHSQ+CLrNqxU0blkwl0c/AoRnMSGK4fPHhwMGPmzGBCjpUsI2GDNbKKMNFz9qxZoXDimXxj2LDgggsuCCOnHFZ7rttuu635ZXrwIc9D2v37mGv9+9//Hn4WARnZJtIhSw+Y37OfjSLEOWjUSQghhGg9nTAqn0igs/w41E8WbBVRpyC6hipCFJapU6YEN954Y3DnnXcG79SEMcM342pC/djjjjO/Sg9+4p2IT5HebnGuUSchhBA+wKCHy8dtt90Wjgjzd+f8+bFuIASKwEVkwcKF635LgIizzznH/KIr/I/fsF+0b/1+hx9+uPlld9AzGGO5lmgfrpEgGfVw7ug8/HFt7FdvqOTc/I8gF0BAjOj3ad1dqj4qn0igR7GbkwzT+ybqFETXUFXw6Z57663BJT/5STBr1qxwASLijhN+sV+/fuZX5eYt8y422WST8Npt4KeeFx8ivV3iHDTqJIQQwhcI5OtvuCEUrECgBv6Ikkc453oQwghc5r6xhgq/YzSftnnEiBFhG2PjX/fbb504Zj+CDxD1DYMiQrwRznXFtGnhei9cS3Rdq2vtaxQkAxDXnLt3797htUTXzn7Tp083vwrChRaj6wUi0UXH/N3jj4fb0uDT4BfRKm2RSKALv7CYz8+vuipMI3T3qxWIepj8Caw6WiawzDJkhJU3qiQaCe9n//3Nt3zkKViuAsQEkiLFOWjUSQghhA+wMJ9z7rlhWOW5c+cGw4cPDxck5I8FDKNFDAELNEIYYf3d884L/8fvmNsUhk2ubUcU2yzptO0TJ0xYtx/nInAB5z7ZLEAYQaeBczFnrX4f/gjvzGfEB++/H1770CFDwmuJfsOxMcBG1/Pkk0+G/2NtFVi+fPm6Y2YNiuFTpLdKnIMEesEccMABYazzRvqaIR0Eb2O867drvUqoj6BSBn7/+9+vu9b/XSvojR2LnXfZJRwRIB66L8joxFJ3zcpunPDRTJwzgaRIcQ4adRJCCOGD0047LQxzjBUZd1kXrEUCuNQiduthZfBJkyaFaVYCjwMr9b333mu+rWXKZZeFn9E8tIgTv/Wt8HPmjBnd9mnkwgsvjL32O++4I/zs06dP+FkUPkR6K8U5JBLo9LigHZPOomH66BqqxgknnhiceuqpYa92SK3nSJzrYcOGBf/HhMRjOKc+Djm8ZELsEdaQ37IPiz6VARY1Ykl/fKS5B+6L6yM+Or3rkbUeMeEbfeOalc2Ej0ikJxHnQgghRFX4ghkNZY2SZuCOgl6yWZsR7fzfZsChE9BIJPQ5dj3oANx3k1q2GQnALx13F3zc8UeP3GlaQR6R3kxb+BbnkEigP218gdox6SzqFETXUDVwV/n8brsFY888MzjzrLPCT4Qt8dDpcRJPfNWqVebXa5n3q18FL9RELqtKEi6PfaJecbuht8s1c31Yyilc0T0RFmlh7Z5+88gj5td+cU34iGZl2woQ4l7iXAghRNWI5nU1WsQbwWAG+H+7iP7vmvjZjGjfRv1iA2GODz0rq+NGw2rjq1evXudr3ioQ0VUZlU8m0Ns46SzLZLsygc/V9TVBy4qf8+bNC+66667glptvDq6/7rpwWGhRTKifRx99NLjm2muDG3/xi+CWW24J97lr/nzz3yDch+GruH0jnn/++fA3d5jho3rYxv/4jY3oN3HnoLfM9f2idn38huu7rXafs2s94utqf1HG/+CDD8JPn7h6wLbZ1IhzxH0r0aiTEEIIH+D/XTa23HJLk2oOk0sZXQeCZCCQ8T/HZz3yNW81VRiVTyTQI3HcjtjKWcPVlYXHfvvb4OZf/jL42c9+Flw5fXr4d80114TCfcWKFeZX3XnowQfD30X7IO4j/rsmiNnGpw3cZvgNIr8RtvG/RteaeqLf2M7B9SHG+Q1/XCu/ZcTgc5/7XPibvAsp2Wg2TFVPO8Q5aNRJCCGEDyJjS7N1UyL3lF4WQRkR/b+Z37iLpOcCXGDpZCx64IHgahMgI2LzLbYwqdZT9lH5ZD7odbGVW7lC4Y8uvDD8rKo474kQMhLfeXB1APKSRKS3S5yDRp2EEEL44A0z8Z/Joi6YBBr5l9vcV7Bm83+ip+SBc+F/7jpXxCabbhp+/jHGKLm/p6hvWSnzqHwigQ6tXqEQYRNZz7FAi3JwcK3HyKTQyEoesWmtABKx5qTRo0P/elYpjWZnF4WrYLG9XeIcNOokhBDCB4xSE8rw4EMOWednHhEtXhQx34x6jx07tlvccn47YcKEMO2jfb799tvDz7hzIdqj0IkrV64MPwc1RI7BL52Qjy4aY7wXQVlH5RMLdKzokVCeOXNmU9Hx8ccfBy+99FJwz913Bw//+tdma3J+9KMfhZ+csx2h6kQ8g484Ivj2KaeEfxSuY489NjjhhBPCSDVs+3It49KrnjNnTvDMM8+YvYojKlgUGuCT72xvJxp1EkII4QMmh86fPz90EyEwA6t0IspZcIiJl/WLHeJCwsRLLNssIES0lPrfsh0X26wxxeuxnYvPiZMmrQudSPQZOhhEfYmund8wYdS2+BDXF+3DtU+dOjUYP368+a9/koj0Vo/KJxbocPnll4dimZcRCQEXTHb88Y9/HMyYMcNsScaVtd9zDs7FOUV5eLYmutesXh3su+++YeEaffLJodV86FFHhZbzp2oVyc9/9rMwEk2roGBRaCKrebvFeYRGnYQQQviAGOIsBoQg7r3ZZmEkFMQrK4WySnk9LAT005qgxY2F39T/lu3NYqmngXMx8bP+XESd4TqjsJC4w0y+6KJ1ixLxm8169w73iwvrGME+uOxgZR9Qa99WmUUci8Il0iN90Uo2OOjAAz8msf0OO4QbIl595RWT6gpCI7SgGwH9w1qPxtdqifXH5qWMqb14X8cWfuAdsfDSZptvHi7ZG4Fo/+DDD8N8U6TveTupLyPcZ5Iyc9ZZZwXHffObifPzwIEDw5j3LIGctmOLZYKygzhXx1YIIYRID5Fb8D9noihWc6K1FGH4a6YhUgt0qBfSgEjPO6SO5S+yykucizKSRaADI0JYt+nQfuf0081Wv7TiHEIIIURPAaFe5Ih8Mw2RysUlAuE8fPjwdaIcYY1AiIbX08A+WP7qfWc5tsS56BTCUaZapxMBHbpveXR34ViUH47NOTiXEEIIIfLRbnfZTBb0ehDYDONH1nRAZBPFApGNRS8iEiaEgUNQ7DlgwLr9EBcMy2tymygrWS3ooFEnIYQQQkQ00xC5BXoEYgHhndaKLmEuqkIegR6BoI7KCJ1X/MXT5v3GTjH7y3IuhBBCVIeWCfQILIVYxxHrUboeBDkrHCJOIiu7EFXAh0CHRoENiGyNOgkhhBA9g5YLdCE6FV8CPUKjTkIIIUTPJLNAF0LY8SHQIzTqJDoVX2VECCE6DQl0IQrAp0AXncXGG28cbLHFFuZbz+afPvlJk1rL382Kv8JN43MToqfx9ltvBR9++KH51plIoAtRAHECXQghhBAiC40CPVMcdCGEEEIIIUQxrLOgCyHSIQu6EEIIIXxgdXERQqRDAl2IdKxYscKkhAv56lcTtQkiDxLoQgghhBBClBj5oAshhBBCCFEiJNCFEEIIIYQoERLoQgghhBBClAgJdCGEEEIIIUqEBLoQQgghhBClIQj+PwXPrxFp3FUlAAAAAElFTkSuQmCC;" parent="1" vertex="1">
          <mxGeometry x="91.9" y="830" width="157.19" height="30" as="geometry" />
        </mxCell>
        <mxCell id="lJLGQ6NZF0hMZ-78PvMA-1" value="" style="shape=image;verticalLabelPosition=bottom;labelBackgroundColor=default;verticalAlign=top;aspect=fixed;imageAspect=0;image=data:image/png,iVBORw0KGgoAAAANSUhEUgAAA/kAAADFCAYAAAAPFTJHAAAAAXNSR0IArs4c6QAAAARnQU1BAACxjwv8YQUAAAAJcEhZcwAADsMAAA7DAcdvqGQAABtASURBVHhe7d0JzBxl/QfwKVBuKJSjIIIEQRNFMSBX0EgC/EFADgVEoEQIyhFAgQIeiBoFKRQwoqJCQAu1cmhCtBQwKFECEcSQ4AWEs0ApN3KUcu2/v+ls33nnfVv6srP7zj7v55MMzMw7+8zzvru/7Xyfmdkd11ooAwAAAPrecsX/AQAAgD4n5AMAAEAihHwAAABIhJAPAAAAiRDyAQAAIBFCPgAAACRCyAcAAIBECPkAAACQCCEfAAAAEiHkAwAAQCKEfAAAAEiEkA8AAACJEPIBAAAgEUI+AAAAJELIBwAAgEQI+QAAAJAIIR8AAAASIeQDAABAIoR8AAAASISQDwAAAIkQ8gEAACARQj4AAAAkQsgHAACARAj5AAAAkAghHwAAABIh5AMAAEAihHwAAABIhJAPAAAAiRDyAQAAIBFCPgAAACRCyAcAAIBECPkAAACQCCEfAAAAEiHkAwAAQCKEfAAAAEiEkA8AAACJGNdaqJhvpHHjxhVzAAAA0H0Nj8lL5Uw+AAAAJELIBwAAgEQI+QAAAJCIvrsnv5/vjQAAAKB5UsqdzuQDAABAIoR8AAAASISQDwAAAIkQ8gEAACARQj4AAAAkQsgHAACARAj5AAAAkAghHwAAABIh5AMAAEAihHwAAABIhJAPAAAAiRDyAQAAIBFCPgAAACRCyAcAAIBECPkAAACQiHGthYr5Rho3blwxt8hIu1t9fB0a/icDAABq0I0sUSVbNEOnubNJnMkHAACARAj5AAAAkAghHwAAABIx5u7Jd88LAAAwWuSTZnJPPgAAANA4Qj4AAAAkQsgHAACARAj5AAAAkAghHwAAABIh5AMAAEAifIVezar7A5qt0/cENQ/9peGHPcAYkNJXtaUkpedFyK+ZA37oL52+J6h56C91HAeoe+gvTYs7vc4nLJuUnheX6wMAAEAihHwAAABIhMv1a+byG2i2umu02h7QbHX8u6zuob807XhcXmimlJ4XIb9mihaare4arbYX1D00S7lO66jP4eoeaK6m/bssLzRTSs+LkF8zRQvNVneNVtsL6h6apVynddSnuofmq7vu61T3sQj1SOl5cU8+AAAAJELIBwAAgEQI+QAAAJAIIR8AAAASIeQDAABAIoR8AAAASISQDwAAAIkQ8gEAACARQj4AAAAkQsgHAACARAj5AAAAkIhxrYWK+UYaN25cMbfISLvb6eNHqtf7A0am7hqtthfUPf3q2Wefzf8/3Gt4WdeFTh7/bta9/fbbeS1uvPHGxZrBynU6XFsjpe6h+equ+zpV30Pq6N8bb7yRjR8/Pn8/fPPNN/P5EPOxvxVWWCFffidvvfVWtvzyyw+ZH6n4nYZ7r2yybjwvo0XIr1lKLw5IUd01Wm0vqHv61VVXXZVdeuml+UFiTPFars7XsW6k2y9pXYga3GijjbJTTz01O/HEE/N1VeU6jcd3St1D89Vd93WqvofU0b/f/e532UMPPZS/N2655ZbZww8/nAf99773vdncuXOzl19+Odtss82yV199NXvllVeyiRMn5ttG+H/99dfz+ZVXXjlbf/31s+eeey5bddVVs/e85z3ZE088kfdvgw02yObNm5f3fZVVVskHFWIQYMKECfnj4/8xoPDaa6/l7ay11lrZiy++mLe76aabZnPmzMm3W2eddfLtnn/++bzNaCe2WXPNNbOXXnopbzu2eeqpp/IBhph/5plnsvnz5+fz0f9oZ/XVVx80ABHtxPIaa6yR/64rrbRS/vvHfGy7LLrxvIwWIb9mKb04GNvGwhm9MFx7I1FtL3TaJoyWOECcOnVq9otf/KJvXscR8M8999zskEMOKdYMVa7TOn4vdQ/NV3fd16nuY5HwyCOPZHvuuWd2//335wE3wm0E3uWWWy4P1W0RhCP0RlCOwBzBOYL5008/nc/HzyNgx3wE7gjeEcDj+CqCdATzCOjRZmwT7USAjyAf20Swj4AfQT/aje3KAwExMBDtRNvxd4iBg2gz/gYxoBADCzHAEAMNMeAQ7US78fgYkIj5GKCIgYrofwxcxO8aAxkxoBHBPgY4YqAjtt1iiy2yo48+uvjtl64bz8toEfJrltKLg7FtLJzRC9FGJ6rthU7bhNH06KOP5jV0zTXXNP61vN5662Wnn356dsoppxRrhleu0zp+J3VPClIdzG+ru+7rVH0Pqat/jz/+eHbggQdmt99+e7Gm9+J3e7e/TwwwxCBAdf6dRPiP/bYHMyLox/zmm2+e/elPf8qPDZdFt56X0SDk1yylFwdj21g4oxc6/d2q7QV1T7974IEHsjPOOCO7+uqrFw+ihTir0jbca7+b6+KA7cknnyyWsmzdddfNA/6UKVOKNUtWbqeO+hyur+qefpPqYH5b3XVfp+p7SJ39izPcEfRnz55drBks9h37i2DcDsVL0t42lEN3XB3Qfk6aKq4IuPHGG/Mz+suqm89Lrwn5NUvpxQGpn9ELnf5e1faCuicFMdAXQf83v/nN4oO5FVdcMQ/606dPzy+vjAO9qIHy/+teF5dgfvzjH8//3xYBP96bTjvttGLN0kVbbXXUZ7m9NnVPv0l1ML+t7rqvU/U9pBv9i7/RzJkzi6UBcen9HnvskV8OH/tde+2188ve432+/d4bYT5+FpfBt8+Kx3xcOh+3AsT7cQwSxOX6cal+PCb+Tfjf//6Xz6+22mr5NvH/uDQ/Lu+PbcN9992XB/C4XD9uEYg24z09LvOPS/LjMe3+LFiwIO9TbBt9iu3jkv9YF23G7QhxO0FV/I4R8HfYYYdizbLpxfPSK0J+zVJ6cUBI+Yxe6LRGh+uruicVMdAX9T9jxozF9R8HfPvvv38e/od7/dcp7gv99Kc/nf3jH/8o1mT5vZhR78sa8EO5n3XUp7onFSkO5rfVXfd1qr6HdKt/xx13XHbxxRcXSwMuuOCC7IgjjsgHbiOYR9CO0B73x8d8HOPFcVYE67jXPm7tiO0iPEffI2xH2I/5F154If93oR3IY9AgAnt8UF6cRf/nP/+Zz2+yySb58Vu8r8c99xHkY2pfah9TtBODD3HVwIYbbph/vkCsj/vuH3vssXz7OOaL123s69prr81mzZpV/FaLxPobbrgh22233Yo1yy72VdbP7+tCfs1SenFAW6pn9EKnNVptL6h7UhL3eO63337ZXXfdtfi1HWdV9tlnn/ws0XA1UIf4NOU42xT7bYuzNkcddVR+gDoS5T7WUZ/qnpSkNpjfVm6vafVZ/f272b+vf/3r2TnnnFMsDZg2bdoyD5jUIX7H4Z73pWk/JgYb4v9xLBiv0VgfAf/ggw8uthwQ3zIQA9HvRi+fl24T8muW0osDylI8oxc6rdHhfm91T2oefPDB/GAqAne7/uNsz957750Hg7rrP84a7b777oMCfgws7LvvvsNefvpOyv2roz7VPalJaTC/Ldpsa1p9lvsWut2/CPkR9qvOPPPM7Lvf/W6x1D/i7H38+1MVr9XJkycXSyPX6+elqxZ2vtGii+VppDp9/Ej1en/QS4899lhr4T++rYVvgotf4wsPvFuf//znWwsPCoqt6vf000+3ttlmm0G1tcYaa7ROOumkYotlV24jpk5V26ujTWiihx9+uLX99tu3Fh6IL36tr7TSSq399tuv9dZbbxVbde75558fUu/xPnPQQQcVW4xcua06lNurs10YTY888khrYUAaVOPjx4/Pa6+b/8a3zZs3r7X11lsPqquJEye2pk6dWmwxMuV2mqbct1717+KLLx6y35hOPPHEYov+cMstt7RWXnnlIb/HT3/602KLd6/aZj9rfO87/WN3+viR6vX+oNceeOCB1rbbbjvoICDebA844ICuHAQ888wzwx7wH3zwwcUWI1NuJ6ZOVduro01oqhjo22GHHQbV/4orrtj61re+VUvQf+mll1pHH330oHqKgYROAn4ot1eHcnt1tgujLYXB/LZyW01T7lsv+zdz5swh+47p8MMPL7Zotrvuuqu17rrrDun/ueeeW2zRmWq7/azxve/0j93p40eq1/uD0ZDKGb2YOlVtr442ocmefPLJ1mabbTYoBKy66qqtb3zjGx3V/8svvzwk4K+wwgqtHXfcsdji3Su3WYdye3W2C03Q74P5beX2mqbct1737/rrr2+tvvrqQ/qwzz77tBYsWFBs1Tz33ntva9NNNx3S729/+9vFFp2rtt3PGt/7Tv/YnT5+pHq9PxgtKZzRi6lT1fbqaBOa7u677x4S9CMEnH766a0333yz2GrZvfLKK61jjjlmUB1FwI/BxLlz5xZbvXvldutQbq/OdqEp+nkwv63cZtOU+zYa/bvttttaG2200ZB+fOpTn8pvm2iaxx9/vLXlllsO6e8pp5xSbFGPavv9rPG97/SP3enjR6rX+4PR1O9n9GLqVLW9OtqEpov6vueee4bUfwz0nXrqqSMK+vPnz28de+yxg2oo6j3OJNYR8EO57TqU26uzXWiSfh3Mbyu32zTlvo1W//7973+3PvzhDw/py1ZbbdW67777iq1G34svvpi/Dqv9jNdO3ar76GeN732nf+xOHz9Svd4fjLZ+PqMXU6eq7dXRJvSDOMj/z3/+09p8880H1X/U6/nnn79M9R+Xhp511lmD6icCRZzZqyvgh3L7dSi3V2e70DT9OJjfVm67acp9G83+PfHEE62ddtppSH/e9773te64445iq9ETr7Fdd911SP8OPfTQYot6VffTzxrf+07/2J0+fqR6vT8Ybf18Ri+mTlXbq6NN6Bdxf+79998/5P7OCOrxQUhLq//XX3+9dfbZZw96XEyTJk2qNeCHcvt1KLdXZ7vQRP02mN9Wbr9pyn0b7f7F87HXXnsN6dNaa63Vuummm4qtRkfcHlLt17777lv8tH7VffWzxve+0z92p48fqV7vD5qgX8/oxdSpant1tAn9JIL+rbfeOuwHOf3gBz/Iw3xV1Hv8rPx+EdP666+ff3py3cr7qEO5vTrbhSbqt8H8tvI+mqbct6b075BDDhnSr5iuvvrqYoveOuyww4b0ZZdddmm98cYbxRb1q+6vnzW+953+sTt9/Ej1en/QFP14Ri+mTlXbq6NN6DdR/7fffvuwQT8G78qf2BzvBRHwy/f5xhRfi9SNgB/K+6lDub0624Wm6qfB/Lbyfpqm3Lcm9e+4444b0reYLrnkkmKL3qhe6RFTXOkRH9TYTdV99rPG977TP3anjx+pXu8PmqTfzujF1Klqe3W0Cf0q7uGcMGHCkJqYNWtWXutxBiYu/xw/fvygn0+cOLH197//vWilfuV91aHcXp3tQpP1y2B+W3k/TVPuW9P6F5+3UO1fTOedd16xRXdNmTJlyL7jAwLnzJlTbNE91f32s8b3vtM/dqePH6le7w+app/O6MXUqWp7dbQJ/ezOO+9srb322kMG7q677rrW7Nmz80t8y+tjUCB+Fu8d3VLeXx3K7dXZLjRdPwzmt5X31TTlvjWxf1OnTh3Sx5jOOOOMYovu+M53vjNkn/EhgHEVSS9U993PGt/7Tv/YnT5+pHq9P2iqfjijF1Onqu3V0Sb0u7i0c7igX53ig51+9rOf5ZcCd1N5n3Uot1dnu9APmj6Y31beX9OU+9bE/oV4b672M6bjjz++2KJe06ZNG7KvddZZJx847pXq/vvZuPjPwl+isRYeIBRzi4y0u50+fqR6vT9osoVhPfu///u/7IUXXhhUC9ddd1224oorZvvuu2/2+uuvF2uzbMKECdn06dOzz3zmM0NqqS511+hw/VT3kGWXXXZZdtppp2XPPffcsDWxMOBnCw/+sy996UvZ8ssvX6ztjnKd1lGf6h6ybGH4ynbbbbfsxRdfLNYsMmvWrGzXXXfNFgb77M9//nO21157ZW+88Ubx0yybOHFidtNNN2XbbLNNsaY76q77OtV9LNItV111VXbwwQcXSwMmT56cH6/V5ec//3l2zDHHFEuLrLTSStkNN9yQ7bzzzsWa7uuX52VZCPk1S+nFAXW49NJL8wP9atCvigP+c845Jz/gjwODbqm7RqvtBXUPi/zyl7/Mvva1r2VPPfXUoLqIej/77LPzel9hhRWKtd1TrtM66lPdwyJNHMxvq7vu61T93Zv8/nHjjTdmBx54YPbSSy8VaxaJ5/Caa67Jw3gnZsyYkR122GHF0oDf//732d57710s9UY/PS/vRMivWUovDqhLU8/ohU5rtNpeUPcwIA7oo/7bQX+NNdZYPKA3fvz4YqvuKtdpHfWp7mFA0wbz2+qu+zrVfSzSbX/729/yoD9nzpxizSKf/OQn86A/adKkYs3IxGDQfvvtVywNmDlz5rBXEHRbvz0vS9P9CgPGvCOPPDKbNm1atv766w95A22f0TvqqKO6HvCB3jv88MOzU089NT8IjLN4X/nKV/L3hF4FfKC74t/v+Dc+LsMfbgAstAfzY9teBHzqtf322+e3WHzkIx8p1izy17/+Nb+S49577y3WLLubb745+9znPlcsDbjkkktGJeCnxpn8mqU0AgR1a9oZvdBpjQ53QKPuYagf/vCH2auvvpqddNJJ2SqrrFKs7Y1yndZRn+oehmrK7Tltddd9neo+FumVJ598Mj+jf+uttxZrFtlkk02yq6++Oh8MWBZxZcDuu+8+5PMcLrzwwuyrX/1qsdR7/fq8DEfIr1lKLw7ohvPPPz8f8Z8/f352wgknZN/85jezlVdeufhp99Vdo9X2grqHZinXaR31qe5heE0YzG+ru+7rVPexSC+99tpredD/wx/+UKxZZM0118wv3Y8z+0vzr3/9Kw/4jz/+eLFmke9973vZGWecUSyNjn5+XqqE/Jql9OKAbmnKGb3QaY1W2wvqHpqlXKd11Ke6hyUb7cH8trrrvk51H4uMhviE/SuvvLJYGhCfyH/QQQcVS4M98sgjecCvXt4fV4DE7RyjLYXnpU3Ir1lKLw5IUd01Wm0vqHtolnKd1lGf6h6WbjQH89vqrvs61X0sMlpiEOfHP/5xsTQgvhLvy1/+crG0yLPPPpvtscce+TcylB1//PHZRRddVCyNrlSelyDk1yylFwekqO4arbYX1D00S7lO66hPdQ/NV3fd16nuY5HRFJfYn3XWWcXSgKlTp+a3boQFCxbkAf+WW27Jl9u++MUvZpdffnmxNPpSel6E/Jql9OKAFNVdo9X2grqHZinX6XD1+cQTT2RXXHFFvl18G8AGG2xQ/GR46h6a753qfjRV30P6/f3jvPPOWxzoy+JWje9///v5d+pX7+E/4IAD8nv4mySl50XIr1lqRQupqbtGq+0FdQ/NUq7Tan3OnTs323bbbRd/CFR8SvSdd96Zf+Xnkqh7aL6l1f1oq/tYpAniq++ql+iHLbbYIrv//vuLpUXirP7s2bOLpeZI6XnxRZUAwJgVHxxV/pTnRx99NJsxY0axBMCyiG9QiK/Rq6oG/E984hPZtddeWyzRLUI+wDCeeeaZ/Pta4ytdYopPC65+3QvQ/15++eVibsBw6wBYuvhqvRtvvDGbMGFCsWawj33sY3nAX2211Yo1dIuQD1AR3+8bl++efPLJ2ZlnnplPU6ZMybbZZpvsoYceKrYCAKAsvif/pptuym99Ktt8883zgD9p0qRiDd0k5ANUTJ8+PXv44YeLpQHz5s3LfvWrXxVLAABUbbfddtkf//jH7KMf/Wi+HME+Av773//+fJnuE/IBKpb2QSs+XAsAYOk+8IEP5EE/zuz/9re/zbbaaqviJ/SCkA9QMXny5GzjjTculgbbcccdizkAAJYkvqUk7tHfaaedijX0ipDfZfFVDCaTqTnTsojvyL7jjjuyVVZZpVgzIC5BAwCAphLyAYax/PLLZ/Pnzy+WFllzzTWziRMnFktLNtzggslkGr0JAMYSIR9gGHPmzCnmBizpEn6A4QYXTCbT6E0wlgn5AMN49tlni7kBG264YTEHAADNJOTXLD5522Qy9c+0JM8991wxN2DChAnF3IDh2jSZTM2dACB1Qj7AMIb7Pvz11luvmANSsGDBgmz27NnF0oDVV1+9mBvecIMHJpOpuROMNUI+QMVFF1007IH/Zz/72WIO6Hd/+ctfsl122SW78847izUD9t5772IOAPrPuFbDh7eqH5wx0u52+nhgbLn44ouz4447rlgasOWWW2b33HNPsQT0q/jO5h/96EfZ9ddfX6wZbMcdd8xuu+22YgmgfvJJM6X0vDiTD7DQCy+8kB155JHDBvxw7LHHFnNAP4kP0bzggguyww47LPvQhz6U7bHHHksM+OHkk08u5gCgPzmTD4x5v/71r7MpU6Zkc+fOLdYMdsIJJ+Rn/oD+Eh+gue2222YPPvhgsWbJlltuuezaa6/N9t9//2INQHfIJ83kTD5AAiLUx9m9Qw89dIkBf8899xTwoU9deeWVyxTwP/jBD2Y333yzgA9AEoR8YEyaN29etv3222czZswo1gwVl+7PmjWrWAJSs9VWW2WXXXZZ9t///jfbeeedi7UA0N+EfGBMijN8c+bMKZYGi+/Dv/zyy7Of/OQnxRqgH02ePDnbbLPNiqUB8eF6M2fOzO6+++7siCOOKNYCQBrG3D35dXDfDPS/Cy+8cNgP2PrCF76QnXfeedlGG21UrAH6WXzw3vTp07O3334723rrrfMpBvIAlkU3skSVbNEMKd2TL+S/CwoR+l8c+G+33XaL79edNGlSNm3atPwefQCAIOSPHUJ+Dwn5QLc8//zz2RVXXJHPR7ifOHFiPg8AEIT8sUPI7yEhHwAAGA1C/tgh5PdQSn9sAAAAmiel3OnT9QEAACARQj4AAAAkQsgHAACARAj5AAAAkAghHwAAABIh5AMAAEAihHwAAABIhJAPAAAAiRDyAQAAIBFCPgAAACRCyAcAAIBEjGstVMw30rhx44o5AAAA6L6Gx+SlciYfAAAAEiHkAwAAQCKEfAAAAEhE4+/JBwAAAJaNM/kAAACQCCEfAAAAEiHkAwAAQCKEfAAAAEiEkA8AAACJEPIBAAAgEUI+AAAAJELIBwAAgEQI+QAAAJAIIR8AAAASIeQDAABAIoR8AAAASISQDwAAAIkQ8gEAACARQj4AAAAkQsgHAACARAj5AAAAkAghHwAAABIh5AMAAEAihHwAAABIhJAPAAAAiRDyAQAAIBFCPgAAACRCyAcAAIBECPkAAACQCCEfAAAAEiHkAwAAQCKEfAAAAEiEkA8AAACJEPIBAAAgEUI+AAAAJELIBwAAgEQI+QAAAJAIIR8AAAASIeQDAABAIoR8AAAASISQDwAAAIkQ8gEAACARQj4AAAAkIcv+H8Bsq/oWnC5mAAAAAElFTkSuQmCC;" parent="1" vertex="1">
          <mxGeometry x="301" y="812.47" width="297" height="57.53" as="geometry" />
        </mxCell>
        <mxCell id="KP-3lZ1b82kxgt-XnlIy-1" value="Function" style="rounded=0;whiteSpace=wrap;html=1;fontSize=16;align=left;verticalAlign=top;" parent="1" vertex="1">
          <mxGeometry x="22.99999999999997" y="1130" width="310" height="190" as="geometry" />
        </mxCell>
        <mxCell id="KP-3lZ1b82kxgt-XnlIy-2" value="Statement" style="rounded=0;whiteSpace=wrap;html=1;fontSize=16;align=left;verticalAlign=top;" parent="1" vertex="1">
          <mxGeometry x="32.99999999999997" y="1160" width="290" height="150" as="geometry" />
        </mxCell>
        <mxCell id="KP-3lZ1b82kxgt-XnlIy-3" value="Path: [&quot;function_id&quot;, &quot;statment_id&quot;]" style="text;html=1;align=center;verticalAlign=middle;resizable=0;points=[];autosize=1;strokeColor=none;fillColor=none;fontSize=16;" parent="1" vertex="1">
          <mxGeometry x="37.99999999999994" y="1330" width="270" height="30" as="geometry" />
        </mxCell>
        <mxCell id="KP-3lZ1b82kxgt-XnlIy-4" value="Data" style="rounded=0;whiteSpace=wrap;html=1;fontSize=16;align=left;verticalAlign=top;" parent="1" vertex="1">
          <mxGeometry x="42.99999999999997" y="1190" width="40" height="30" as="geometry" />
        </mxCell>
        <mxCell id="KP-3lZ1b82kxgt-XnlIy-5" value="Method" style="rounded=0;whiteSpace=wrap;html=1;fontSize=16;align=left;verticalAlign=top;" parent="1" vertex="1">
          <mxGeometry x="82.99999999999997" y="1190" width="60" height="30" as="geometry" />
        </mxCell>
        <mxCell id="KP-3lZ1b82kxgt-XnlIy-6" value="Method" style="rounded=0;whiteSpace=wrap;html=1;fontSize=16;align=left;verticalAlign=top;" parent="1" vertex="1">
          <mxGeometry x="142.99999999999997" y="1190" width="170" height="110" as="geometry" />
        </mxCell>
        <mxCell id="KP-3lZ1b82kxgt-XnlIy-7" value="Statement" style="rounded=0;whiteSpace=wrap;html=1;fontSize=16;align=left;verticalAlign=top;" parent="1" vertex="1">
          <mxGeometry x="152.99999999999997" y="1220" width="150" height="70" as="geometry" />
        </mxCell>
        <mxCell id="KP-3lZ1b82kxgt-XnlIy-8" value="Data" style="rounded=0;whiteSpace=wrap;html=1;fontSize=16;align=left;verticalAlign=top;" parent="1" vertex="1">
          <mxGeometry x="162.99999999999997" y="1250" width="40" height="30" as="geometry" />
        </mxCell>
        <mxCell id="KP-3lZ1b82kxgt-XnlIy-9" value="Method" style="rounded=0;whiteSpace=wrap;html=1;fontSize=16;align=left;verticalAlign=top;" parent="1" vertex="1">
          <mxGeometry x="202.99999999999997" y="1250" width="60" height="30" as="geometry" />
        </mxCell>
        <mxCell id="9cesWwx0f_SxeSU0DT-P-97" value="" style="rounded=0;whiteSpace=wrap;html=1;fillColor=none;" parent="1" vertex="1">
          <mxGeometry x="110" y="340" width="300" height="320" as="geometry" />
        </mxCell>
        <mxCell id="9cesWwx0f_SxeSU0DT-P-98" value="" style="edgeStyle=orthogonalEdgeStyle;rounded=0;orthogonalLoop=1;jettySize=auto;html=1;exitX=1;exitY=0.5;exitDx=0;exitDy=0;" parent="1" source="9cesWwx0f_SxeSU0DT-P-99" target="9cesWwx0f_SxeSU0DT-P-101" edge="1">
          <mxGeometry relative="1" as="geometry" />
        </mxCell>
        <mxCell id="9cesWwx0f_SxeSU0DT-P-99" value="&quot;A quick brown fox&quot;" style="rounded=0;whiteSpace=wrap;html=1;fillColor=none;" parent="1" vertex="1">
          <mxGeometry x="165" y="60" width="160" height="40" as="geometry" />
        </mxCell>
        <mxCell id="9cesWwx0f_SxeSU0DT-P-100" value="" style="edgeStyle=orthogonalEdgeStyle;rounded=0;orthogonalLoop=1;jettySize=auto;html=1;entryX=0;entryY=0.5;entryDx=0;entryDy=0;" parent="1" source="9cesWwx0f_SxeSU0DT-P-101" target="9cesWwx0f_SxeSU0DT-P-106" edge="1">
          <mxGeometry relative="1" as="geometry" />
        </mxCell>
        <mxCell id="9cesWwx0f_SxeSU0DT-P-101" value="Search a string method" style="whiteSpace=wrap;html=1;fillColor=none;rounded=0;align=left;spacing=5;" parent="1" vertex="1">
          <mxGeometry x="365" y="65.25" width="160" height="29.5" as="geometry" />
        </mxCell>
        <mxCell id="9cesWwx0f_SxeSU0DT-P-102" value="" style="html=1;verticalLabelPosition=bottom;labelBackgroundColor=#ffffff;verticalAlign=top;shadow=0;dashed=0;strokeWidth=2;shape=mxgraph.ios7.misc.down;strokeColor=#0080f0;fillColor=none;" parent="1" vertex="1">
          <mxGeometry x="505" y="77" width="12" height="6" as="geometry" />
        </mxCell>
        <mxCell id="9cesWwx0f_SxeSU0DT-P-103" value="concat" style="whiteSpace=wrap;html=1;fillColor=none;rounded=0;align=left;spacing=5;" parent="1" vertex="1">
          <mxGeometry x="365" y="94.75" width="160" height="20" as="geometry" />
        </mxCell>
        <mxCell id="9cesWwx0f_SxeSU0DT-P-104" value="uppercase" style="whiteSpace=wrap;html=1;fillColor=#666666;rounded=0;align=left;spacing=5;" parent="1" vertex="1">
          <mxGeometry x="365" y="134.75" width="160" height="20" as="geometry" />
        </mxCell>
        <mxCell id="9cesWwx0f_SxeSU0DT-P-105" value="append" style="whiteSpace=wrap;html=1;fillColor=none;rounded=0;align=left;spacing=5;" parent="1" vertex="1">
          <mxGeometry x="365" y="114.75" width="160" height="20" as="geometry" />
        </mxCell>
        <mxCell id="9cesWwx0f_SxeSU0DT-P-106" value="&quot;A QUICK BROWN FOX&quot;" style="rounded=0;whiteSpace=wrap;html=1;fillColor=none;" parent="1" vertex="1">
          <mxGeometry x="565" y="60" width="160" height="40" as="geometry" />
        </mxCell>
        <mxCell id="9cesWwx0f_SxeSU0DT-P-107" value="" style="edgeStyle=orthogonalEdgeStyle;rounded=0;orthogonalLoop=1;jettySize=auto;html=1;exitX=1;exitY=0.5;exitDx=0;exitDy=0;" parent="1" source="9cesWwx0f_SxeSU0DT-P-108" target="9cesWwx0f_SxeSU0DT-P-110" edge="1">
          <mxGeometry relative="1" as="geometry" />
        </mxCell>
        <mxCell id="9cesWwx0f_SxeSU0DT-P-108" value="[1, 2, 3, 4, 5, 6, 7, 8, 9]" style="rounded=0;whiteSpace=wrap;html=1;fillColor=none;" parent="1" vertex="1">
          <mxGeometry x="165" y="170" width="160" height="40" as="geometry" />
        </mxCell>
        <mxCell id="9cesWwx0f_SxeSU0DT-P-109" value="" style="edgeStyle=orthogonalEdgeStyle;rounded=0;orthogonalLoop=1;jettySize=auto;html=1;entryX=0;entryY=0.5;entryDx=0;entryDy=0;" parent="1" source="9cesWwx0f_SxeSU0DT-P-110" target="9cesWwx0f_SxeSU0DT-P-116" edge="1">
          <mxGeometry relative="1" as="geometry" />
        </mxCell>
        <mxCell id="9cesWwx0f_SxeSU0DT-P-110" value="Search an array method" style="whiteSpace=wrap;html=1;fillColor=none;rounded=0;align=left;spacing=5;" parent="1" vertex="1">
          <mxGeometry x="365" y="175.25" width="160" height="29.5" as="geometry" />
        </mxCell>
        <mxCell id="9cesWwx0f_SxeSU0DT-P-111" value="" style="html=1;verticalLabelPosition=bottom;labelBackgroundColor=#ffffff;verticalAlign=top;shadow=0;dashed=0;strokeWidth=2;shape=mxgraph.ios7.misc.down;strokeColor=#0080f0;fillColor=none;" parent="1" vertex="1">
          <mxGeometry x="505" y="187" width="12" height="6" as="geometry" />
        </mxCell>
        <mxCell id="9cesWwx0f_SxeSU0DT-P-112" value="map" style="whiteSpace=wrap;html=1;fillColor=none;rounded=0;align=left;spacing=5;" parent="1" vertex="1">
          <mxGeometry x="365" y="204.75" width="160" height="20" as="geometry" />
        </mxCell>
        <mxCell id="9cesWwx0f_SxeSU0DT-P-113" value="reduce" style="whiteSpace=wrap;html=1;fillColor=#666666;rounded=0;align=left;spacing=5;" parent="1" vertex="1">
          <mxGeometry x="365" y="244.75" width="160" height="20" as="geometry" />
        </mxCell>
        <mxCell id="9cesWwx0f_SxeSU0DT-P-114" value="filter" style="whiteSpace=wrap;html=1;fillColor=none;rounded=0;align=left;spacing=5;" parent="1" vertex="1">
          <mxGeometry x="365" y="224.75" width="160" height="20" as="geometry" />
        </mxCell>
        <mxCell id="9cesWwx0f_SxeSU0DT-P-115" value="" style="edgeStyle=orthogonalEdgeStyle;rounded=0;orthogonalLoop=1;jettySize=auto;html=1;" parent="1" source="9cesWwx0f_SxeSU0DT-P-116" target="9cesWwx0f_SxeSU0DT-P-117" edge="1">
          <mxGeometry relative="1" as="geometry" />
        </mxCell>
        <mxCell id="9cesWwx0f_SxeSU0DT-P-116" value="(acc, item) =&amp;gt; acc + item" style="rounded=0;whiteSpace=wrap;html=1;fillColor=none;" parent="1" vertex="1">
          <mxGeometry x="565" y="170" width="160" height="40" as="geometry" />
        </mxCell>
        <mxCell id="9cesWwx0f_SxeSU0DT-P-117" value="45" style="rounded=0;whiteSpace=wrap;html=1;fillColor=none;" parent="1" vertex="1">
          <mxGeometry x="595" y="234.75" width="100" height="40" as="geometry" />
        </mxCell>
        <mxCell id="9cesWwx0f_SxeSU0DT-P-118" value="sort" style="whiteSpace=wrap;html=1;fillColor=none;rounded=0;align=left;spacing=5;" parent="1" vertex="1">
          <mxGeometry x="365" y="264.75" width="160" height="20" as="geometry" />
        </mxCell>
        <mxCell id="9cesWwx0f_SxeSU0DT-P-119" style="edgeStyle=orthogonalEdgeStyle;rounded=0;orthogonalLoop=1;jettySize=auto;html=1;exitX=0;exitY=0.5;exitDx=0;exitDy=0;entryX=0;entryY=0.5;entryDx=0;entryDy=0;" parent="1" source="9cesWwx0f_SxeSU0DT-P-120" target="9cesWwx0f_SxeSU0DT-P-122" edge="1">
          <mxGeometry relative="1" as="geometry">
            <Array as="points">
              <mxPoint x="120" y="390" />
            </Array>
          </mxGeometry>
        </mxCell>
        <mxCell id="9cesWwx0f_SxeSU0DT-P-120" value="" style="rounded=0;whiteSpace=wrap;html=1;fillColor=#666666;" parent="1" vertex="1">
          <mxGeometry x="120" y="350" width="230" height="20" as="geometry" />
        </mxCell>
        <mxCell id="9cesWwx0f_SxeSU0DT-P-121" style="edgeStyle=orthogonalEdgeStyle;rounded=0;orthogonalLoop=1;jettySize=auto;html=1;exitX=0;exitY=0.75;exitDx=0;exitDy=0;entryX=0;entryY=0.5;entryDx=0;entryDy=0;" parent="1" source="9cesWwx0f_SxeSU0DT-P-122" target="9cesWwx0f_SxeSU0DT-P-124" edge="1">
          <mxGeometry relative="1" as="geometry">
            <Array as="points">
              <mxPoint x="130" y="460" />
            </Array>
          </mxGeometry>
        </mxCell>
        <mxCell id="9cesWwx0f_SxeSU0DT-P-122" value="" style="rounded=0;whiteSpace=wrap;html=1;fillColor=#666666;" parent="1" vertex="1">
          <mxGeometry x="130" y="380" width="230" height="20" as="geometry" />
        </mxCell>
        <mxCell id="9cesWwx0f_SxeSU0DT-P-123" style="edgeStyle=orthogonalEdgeStyle;rounded=0;orthogonalLoop=1;jettySize=auto;html=1;exitX=0;exitY=0.5;exitDx=0;exitDy=0;entryX=0;entryY=0.5;entryDx=0;entryDy=0;" parent="1" source="9cesWwx0f_SxeSU0DT-P-124" target="9cesWwx0f_SxeSU0DT-P-126" edge="1">
          <mxGeometry relative="1" as="geometry">
            <Array as="points">
              <mxPoint x="140" y="555" />
            </Array>
          </mxGeometry>
        </mxCell>
        <mxCell id="9cesWwx0f_SxeSU0DT-P-124" value="" style="rounded=0;whiteSpace=wrap;html=1;fillColor=#666666;" parent="1" vertex="1">
          <mxGeometry x="140" y="410" width="230" height="100" as="geometry" />
        </mxCell>
        <mxCell id="9cesWwx0f_SxeSU0DT-P-125" style="edgeStyle=orthogonalEdgeStyle;rounded=0;orthogonalLoop=1;jettySize=auto;html=1;exitX=0;exitY=0.5;exitDx=0;exitDy=0;entryX=0;entryY=0.5;entryDx=0;entryDy=0;" parent="1" source="9cesWwx0f_SxeSU0DT-P-126" target="9cesWwx0f_SxeSU0DT-P-128" edge="1">
          <mxGeometry relative="1" as="geometry">
            <Array as="points">
              <mxPoint x="150" y="560" />
              <mxPoint x="150" y="560" />
            </Array>
          </mxGeometry>
        </mxCell>
        <mxCell id="9cesWwx0f_SxeSU0DT-P-126" value="" style="rounded=0;whiteSpace=wrap;html=1;fillColor=#666666;" parent="1" vertex="1">
          <mxGeometry x="150" y="520" width="230" height="70" as="geometry" />
        </mxCell>
        <mxCell id="9cesWwx0f_SxeSU0DT-P-127" style="edgeStyle=orthogonalEdgeStyle;rounded=0;orthogonalLoop=1;jettySize=auto;html=1;exitX=0;exitY=0.75;exitDx=0;exitDy=0;entryX=0;entryY=0.5;entryDx=0;entryDy=0;" parent="1" source="9cesWwx0f_SxeSU0DT-P-128" target="9cesWwx0f_SxeSU0DT-P-129" edge="1">
          <mxGeometry relative="1" as="geometry">
            <Array as="points">
              <mxPoint x="160" y="640" />
            </Array>
          </mxGeometry>
        </mxCell>
        <mxCell id="9cesWwx0f_SxeSU0DT-P-128" value="" style="rounded=0;whiteSpace=wrap;html=1;fillColor=#666666;" parent="1" vertex="1">
          <mxGeometry x="160" y="600" width="230" height="20" as="geometry" />
        </mxCell>
        <mxCell id="9cesWwx0f_SxeSU0DT-P-129" value="" style="rounded=0;whiteSpace=wrap;html=1;fillColor=#666666;" parent="1" vertex="1">
          <mxGeometry x="170" y="630" width="230" height="20" as="geometry" />
        </mxCell>
        <mxCell id="9cesWwx0f_SxeSU0DT-P-130" style="edgeStyle=orthogonalEdgeStyle;rounded=0;orthogonalLoop=1;jettySize=auto;html=1;entryX=0;entryY=0.5;entryDx=0;entryDy=0;" parent="1" source="9cesWwx0f_SxeSU0DT-P-131" target="9cesWwx0f_SxeSU0DT-P-133" edge="1">
          <mxGeometry relative="1" as="geometry">
            <Array as="points">
              <mxPoint x="150" y="460" />
            </Array>
          </mxGeometry>
        </mxCell>
        <mxCell id="9cesWwx0f_SxeSU0DT-P-131" value="" style="rounded=0;whiteSpace=wrap;html=1;" parent="1" vertex="1">
          <mxGeometry x="150" y="420" width="190" height="20" as="geometry" />
        </mxCell>
        <mxCell id="9cesWwx0f_SxeSU0DT-P-132" style="edgeStyle=orthogonalEdgeStyle;rounded=0;orthogonalLoop=1;jettySize=auto;html=1;entryX=0;entryY=0.5;entryDx=0;entryDy=0;" parent="1" source="9cesWwx0f_SxeSU0DT-P-133" target="9cesWwx0f_SxeSU0DT-P-134" edge="1">
          <mxGeometry relative="1" as="geometry">
            <Array as="points">
              <mxPoint x="160" y="490" />
            </Array>
          </mxGeometry>
        </mxCell>
        <mxCell id="9cesWwx0f_SxeSU0DT-P-133" value="" style="rounded=0;whiteSpace=wrap;html=1;" parent="1" vertex="1">
          <mxGeometry x="160" y="450" width="190" height="20" as="geometry" />
        </mxCell>
        <mxCell id="9cesWwx0f_SxeSU0DT-P-134" value="" style="rounded=0;whiteSpace=wrap;html=1;" parent="1" vertex="1">
          <mxGeometry x="170" y="480" width="190" height="20" as="geometry" />
        </mxCell>
        <mxCell id="9cesWwx0f_SxeSU0DT-P-135" style="edgeStyle=orthogonalEdgeStyle;rounded=0;orthogonalLoop=1;jettySize=auto;html=1;exitX=0;exitY=0.5;exitDx=0;exitDy=0;entryX=0;entryY=0.5;entryDx=0;entryDy=0;" parent="1" source="9cesWwx0f_SxeSU0DT-P-136" target="9cesWwx0f_SxeSU0DT-P-138" edge="1">
          <mxGeometry relative="1" as="geometry">
            <Array as="points">
              <mxPoint x="500" y="440" />
            </Array>
          </mxGeometry>
        </mxCell>
        <mxCell id="9cesWwx0f_SxeSU0DT-P-136" value="" style="rounded=0;whiteSpace=wrap;html=1;fillColor=#666666;" parent="1" vertex="1">
          <mxGeometry x="500" y="400" width="250" height="20" as="geometry" />
        </mxCell>
        <mxCell id="9cesWwx0f_SxeSU0DT-P-137" style="edgeStyle=orthogonalEdgeStyle;rounded=0;orthogonalLoop=1;jettySize=auto;html=1;exitX=0;exitY=0.75;exitDx=0;exitDy=0;entryX=0;entryY=0.5;entryDx=0;entryDy=0;" parent="1" source="9cesWwx0f_SxeSU0DT-P-138" target="9cesWwx0f_SxeSU0DT-P-139" edge="1">
          <mxGeometry relative="1" as="geometry">
            <Array as="points">
              <mxPoint x="510" y="470" />
            </Array>
          </mxGeometry>
        </mxCell>
        <mxCell id="9cesWwx0f_SxeSU0DT-P-138" value="" style="rounded=0;whiteSpace=wrap;html=1;fillColor=#666666;" parent="1" vertex="1">
          <mxGeometry x="510" y="430" width="250" height="20" as="geometry" />
        </mxCell>
        <mxCell id="9cesWwx0f_SxeSU0DT-P-139" value="" style="rounded=0;whiteSpace=wrap;html=1;fillColor=#666666;" parent="1" vertex="1">
          <mxGeometry x="520" y="460" width="250" height="20" as="geometry" />
        </mxCell>
        <mxCell id="9cesWwx0f_SxeSU0DT-P-140" style="edgeStyle=orthogonalEdgeStyle;rounded=0;orthogonalLoop=1;jettySize=auto;html=1;exitX=0;exitY=0.5;exitDx=0;exitDy=0;entryX=1;entryY=0.5;entryDx=0;entryDy=0;" parent="1" source="9cesWwx0f_SxeSU0DT-P-141" target="9cesWwx0f_SxeSU0DT-P-143" edge="1">
          <mxGeometry relative="1" as="geometry">
            <Array as="points">
              <mxPoint x="490" y="540" />
            </Array>
          </mxGeometry>
        </mxCell>
        <mxCell id="9cesWwx0f_SxeSU0DT-P-141" value="" style="rounded=0;whiteSpace=wrap;html=1;fillColor=none;" parent="1" vertex="1">
          <mxGeometry x="490" y="390" width="290" height="100" as="geometry" />
        </mxCell>
        <mxCell id="9cesWwx0f_SxeSU0DT-P-142" style="edgeStyle=orthogonalEdgeStyle;rounded=0;orthogonalLoop=1;jettySize=auto;html=1;entryX=0;entryY=0.5;entryDx=0;entryDy=0;" parent="1" source="9cesWwx0f_SxeSU0DT-P-143" target="9cesWwx0f_SxeSU0DT-P-144" edge="1">
          <mxGeometry relative="1" as="geometry">
            <Array as="points">
              <mxPoint x="160" y="570" />
            </Array>
          </mxGeometry>
        </mxCell>
        <mxCell id="9cesWwx0f_SxeSU0DT-P-143" value="" style="rounded=0;whiteSpace=wrap;html=1;" parent="1" vertex="1">
          <mxGeometry x="160" y="530" width="200" height="20" as="geometry" />
        </mxCell>
        <mxCell id="9cesWwx0f_SxeSU0DT-P-144" value="" style="rounded=0;whiteSpace=wrap;html=1;" parent="1" vertex="1">
          <mxGeometry x="170" y="560" width="200" height="20" as="geometry" />
        </mxCell>
        <mxCell id="9cesWwx0f_SxeSU0DT-P-145" value="" style="endArrow=none;html=1;rounded=0;fontSize=12;startSize=8;endSize=8;curved=1;strokeWidth=5;" parent="1" edge="1">
          <mxGeometry width="50" height="50" relative="1" as="geometry">
            <mxPoint x="10" y="720" as="sourcePoint" />
            <mxPoint x="840" y="720" as="targetPoint" />
          </mxGeometry>
        </mxCell>
        <mxCell id="AS2pZoWWVEqdgskX82vv-1" value="let x = &quot;hello&quot;&amp;nbsp;" style="text;html=1;align=left;verticalAlign=middle;resizable=0;points=[];autosize=1;strokeColor=none;fillColor=none;fontSize=16;" parent="1" vertex="1">
          <mxGeometry x="400" y="1125" width="120" height="30" as="geometry" />
        </mxCell>
        <mxCell id="AS2pZoWWVEqdgskX82vv-2" value="let z = x.length() == 5 ? y == 25 ? true : false : false" style="text;html=1;align=left;verticalAlign=middle;resizable=0;points=[];autosize=1;strokeColor=none;fillColor=none;fontSize=16;" parent="1" vertex="1">
          <mxGeometry x="400" y="1200" width="390" height="30" as="geometry" />
        </mxCell>
        <mxCell id="AS2pZoWWVEqdgskX82vv-3" value="let y = 25" style="text;html=1;align=left;verticalAlign=middle;resizable=0;points=[];autosize=1;strokeColor=none;fillColor=none;fontSize=16;" parent="1" vertex="1">
          <mxGeometry x="400" y="1155" width="90" height="30" as="geometry" />
        </mxCell>
        <mxCell id="AS2pZoWWVEqdgskX82vv-4" value="let z = x.length().==(5) ? y.==(25) ? true : false : false" style="text;html=1;align=left;verticalAlign=middle;resizable=0;points=[];autosize=1;strokeColor=none;fillColor=none;fontSize=16;" parent="1" vertex="1">
          <mxGeometry x="400" y="1230" width="400" height="30" as="geometry" />
        </mxCell>
        <mxCell id="AS2pZoWWVEqdgskX82vv-5" value="let z = x.length().==(5).then(true).else(false)" style="text;html=1;align=left;verticalAlign=middle;resizable=0;points=[];autosize=1;strokeColor=none;fillColor=none;fontSize=16;" parent="1" vertex="1">
          <mxGeometry x="400" y="1260" width="330" height="30" as="geometry" />
        </mxCell>
        <mxCell id="AS2pZoWWVEqdgskX82vv-6" value="let z = x.length().==(5).then(y.==(25).then(true, false), false)" style="text;html=1;align=left;verticalAlign=middle;resizable=0;points=[];autosize=1;strokeColor=none;fillColor=none;fontSize=16;" parent="1" vertex="1">
          <mxGeometry x="400" y="1290" width="440" height="30" as="geometry" />
        </mxCell>
        <mxCell id="AS2pZoWWVEqdgskX82vv-9" value="" style="endArrow=none;html=1;rounded=0;fontSize=12;startSize=8;endSize=8;curved=1;strokeWidth=5;" parent="1" edge="1">
          <mxGeometry width="50" height="50" relative="1" as="geometry">
            <mxPoint x="13.000000000000227" y="1420.0000000000002" as="sourcePoint" />
            <mxPoint x="843" y="1420.0000000000002" as="targetPoint" />
          </mxGeometry>
        </mxCell>
      </root>
    </mxGraphModel>
  </diagram>
  <diagram id="Jw24th82V8fXXZ_xx8Np" name="Functions">
    <mxGraphModel dx="1500" dy="959" grid="1" gridSize="10" guides="1" tooltips="1" connect="1" arrows="1" fold="1" page="1" pageScale="1" pageWidth="850" pageHeight="1100" math="0" shadow="0">
      <root>
        <mxCell id="0" />
        <mxCell id="1" parent="0" />
        <mxCell id="RO6h-25XEkoZI2KRpnrn-1" value="function x(){&lt;br&gt;&amp;nbsp; &amp;nbsp; z&amp;nbsp;= add(10, 20).multitply(2)&lt;br&gt;}" style="text;html=1;strokeColor=none;fillColor=none;align=left;verticalAlign=top;whiteSpace=wrap;rounded=0;fontSize=16;" parent="1" vertex="1">
          <mxGeometry x="180" y="20" width="220" height="70" as="geometry" />
        </mxCell>
        <mxCell id="RO6h-25XEkoZI2KRpnrn-2" value="function add(a, b){&lt;br&gt;&amp;nbsp; &amp;nbsp; return a + b&lt;br&gt;}" style="text;html=1;strokeColor=none;fillColor=none;align=left;verticalAlign=top;whiteSpace=wrap;rounded=0;fontSize=16;" parent="1" vertex="1">
          <mxGeometry x="20" y="20" width="140" height="70" as="geometry" />
        </mxCell>
        <mxCell id="4_JLhB2BSp42EAG4gID2-1" value="- Treat Operation similar to Methods&amp;nbsp;&lt;br&gt;- Attach methos based on Operation&#39;s return result" style="text;html=1;align=left;verticalAlign=top;resizable=0;points=[];autosize=1;strokeColor=none;fillColor=none;fontSize=16;" parent="1" vertex="1">
          <mxGeometry x="425" y="20" width="380" height="50" as="geometry" />
        </mxCell>
        <mxCell id="RDcDYgdUaIQG0w5Bw4jF-3" value="first = &quot;hello&quot;&lt;br style=&quot;&quot;&gt;&lt;span style=&quot;&quot;&gt;second = &quot;world&quot;&lt;/span&gt;&lt;br style=&quot;&quot;&gt;&lt;span style=&quot;&quot;&gt;third = &quot;z&quot;&lt;/span&gt;&lt;br style=&quot;&quot;&gt;&lt;span style=&quot;&quot;&gt;# Output: HelloWorldZ(11)&lt;/span&gt;" style="text;html=1;align=left;verticalAlign=top;resizable=0;points=[];autosize=1;strokeColor=none;fillColor=none;fontSize=16;" parent="1" vertex="1">
          <mxGeometry x="80" y="160" width="210" height="90" as="geometry" />
        </mxCell>
        <mxCell id="RDcDYgdUaIQG0w5Bw4jF-88" value="" style="group" parent="1" vertex="1" connectable="0">
          <mxGeometry x="80" y="400" width="440" height="180" as="geometry" />
        </mxCell>
        <mxCell id="RDcDYgdUaIQG0w5Bw4jF-10" value="first" style="rounded=0;whiteSpace=wrap;html=1;fontSize=16;verticalAlign=top;align=left;fillColor=none;strokeColor=#666666;" parent="RDcDYgdUaIQG0w5Bw4jF-88" vertex="1">
          <mxGeometry width="40" height="30" as="geometry" />
        </mxCell>
        <mxCell id="RDcDYgdUaIQG0w5Bw4jF-13" value="|&amp;gt;" style="rounded=0;whiteSpace=wrap;html=1;fontSize=16;verticalAlign=top;align=left;fillColor=none;strokeColor=#666666;" parent="RDcDYgdUaIQG0w5Bw4jF-88" vertex="1">
          <mxGeometry y="30" width="20" height="30" as="geometry" />
        </mxCell>
        <mxCell id="RDcDYgdUaIQG0w5Bw4jF-15" value="String.capitalize" style="rounded=0;whiteSpace=wrap;html=1;fontSize=16;verticalAlign=top;align=left;fillColor=none;strokeColor=#666666;" parent="RDcDYgdUaIQG0w5Bw4jF-88" vertex="1">
          <mxGeometry x="20" y="30" width="120" height="30" as="geometry" />
        </mxCell>
        <mxCell id="RDcDYgdUaIQG0w5Bw4jF-16" value="first" style="rounded=0;whiteSpace=wrap;html=1;fontSize=16;verticalAlign=top;align=left;fillColor=none;strokeColor=#666666;" parent="RDcDYgdUaIQG0w5Bw4jF-88" vertex="1">
          <mxGeometry width="40" height="30" as="geometry" />
        </mxCell>
        <mxCell id="RDcDYgdUaIQG0w5Bw4jF-20" value="second" style="rounded=0;whiteSpace=wrap;html=1;fontSize=16;verticalAlign=top;align=left;fillColor=none;strokeColor=#666666;" parent="RDcDYgdUaIQG0w5Bw4jF-88" vertex="1">
          <mxGeometry x="120" y="60" width="60" height="30" as="geometry" />
        </mxCell>
        <mxCell id="RDcDYgdUaIQG0w5Bw4jF-21" value="String.concat(" style="rounded=0;whiteSpace=wrap;html=1;fontSize=16;verticalAlign=top;align=left;fillColor=none;strokeColor=#666666;" parent="RDcDYgdUaIQG0w5Bw4jF-88" vertex="1">
          <mxGeometry x="20" y="60" width="100" height="30" as="geometry" />
        </mxCell>
        <mxCell id="RDcDYgdUaIQG0w5Bw4jF-22" value="|&amp;gt;" style="rounded=0;whiteSpace=wrap;html=1;fontSize=16;verticalAlign=top;align=left;fillColor=none;strokeColor=#666666;" parent="RDcDYgdUaIQG0w5Bw4jF-88" vertex="1">
          <mxGeometry y="60" width="20" height="30" as="geometry" />
        </mxCell>
        <mxCell id="RDcDYgdUaIQG0w5Bw4jF-23" value="|&amp;gt;" style="rounded=0;whiteSpace=wrap;html=1;fontSize=16;verticalAlign=top;align=left;fillColor=none;strokeColor=#666666;" parent="RDcDYgdUaIQG0w5Bw4jF-88" vertex="1">
          <mxGeometry x="120" y="90" width="20" height="30" as="geometry" />
        </mxCell>
        <mxCell id="RDcDYgdUaIQG0w5Bw4jF-24" value="String.capitalize" style="rounded=0;whiteSpace=wrap;html=1;fontSize=16;verticalAlign=top;align=left;fillColor=none;strokeColor=#666666;" parent="RDcDYgdUaIQG0w5Bw4jF-88" vertex="1">
          <mxGeometry x="140" y="90" width="120" height="30" as="geometry" />
        </mxCell>
        <mxCell id="RDcDYgdUaIQG0w5Bw4jF-25" value="|&amp;gt;" style="rounded=0;whiteSpace=wrap;html=1;fontSize=16;verticalAlign=top;align=left;fillColor=none;strokeColor=#666666;" parent="RDcDYgdUaIQG0w5Bw4jF-88" vertex="1">
          <mxGeometry x="120" y="120" width="20" height="30" as="geometry" />
        </mxCell>
        <mxCell id="RDcDYgdUaIQG0w5Bw4jF-26" value="String.concat(" style="rounded=0;whiteSpace=wrap;html=1;fontSize=16;verticalAlign=top;align=left;fillColor=none;strokeColor=#666666;" parent="RDcDYgdUaIQG0w5Bw4jF-88" vertex="1">
          <mxGeometry x="140" y="120" width="100" height="30" as="geometry" />
        </mxCell>
        <mxCell id="RDcDYgdUaIQG0w5Bw4jF-27" value="third" style="rounded=0;whiteSpace=wrap;html=1;fontSize=16;verticalAlign=top;align=left;fillColor=none;strokeColor=#666666;" parent="RDcDYgdUaIQG0w5Bw4jF-88" vertex="1">
          <mxGeometry x="240" y="120" width="40" height="30" as="geometry" />
        </mxCell>
        <mxCell id="RDcDYgdUaIQG0w5Bw4jF-28" value="|&amp;gt;" style="rounded=0;whiteSpace=wrap;html=1;fontSize=16;verticalAlign=top;align=left;fillColor=none;strokeColor=#666666;" parent="RDcDYgdUaIQG0w5Bw4jF-88" vertex="1">
          <mxGeometry x="280" y="120" width="20" height="30" as="geometry" />
        </mxCell>
        <mxCell id="RDcDYgdUaIQG0w5Bw4jF-29" value="String.uppercase))" style="rounded=0;whiteSpace=wrap;html=1;fontSize=16;verticalAlign=top;align=left;fillColor=none;strokeColor=#666666;" parent="RDcDYgdUaIQG0w5Bw4jF-88" vertex="1">
          <mxGeometry x="300" y="120" width="140" height="30" as="geometry" />
        </mxCell>
        <mxCell id="RDcDYgdUaIQG0w5Bw4jF-86" value="|&amp;gt;" style="rounded=0;whiteSpace=wrap;html=1;fontSize=16;verticalAlign=top;align=left;fillColor=none;strokeColor=#666666;" parent="RDcDYgdUaIQG0w5Bw4jF-88" vertex="1">
          <mxGeometry y="150" width="20" height="30" as="geometry" />
        </mxCell>
        <mxCell id="RDcDYgdUaIQG0w5Bw4jF-87" value="String.length" style="rounded=0;whiteSpace=wrap;html=1;fontSize=16;verticalAlign=top;align=left;fillColor=none;strokeColor=#666666;" parent="RDcDYgdUaIQG0w5Bw4jF-88" vertex="1">
          <mxGeometry x="20" y="150" width="100" height="30" as="geometry" />
        </mxCell>
        <mxCell id="ub5LQ5oERzVvQmwLkIrE-1" value="" style="group" parent="1" vertex="1" connectable="0">
          <mxGeometry x="350" y="310" width="490" height="90" as="geometry" />
        </mxCell>
        <mxCell id="RDcDYgdUaIQG0w5Bw4jF-94" value="String.length(" style="rounded=0;whiteSpace=wrap;html=1;fontSize=16;verticalAlign=top;align=left;fillColor=none;strokeColor=#666666;container=0;" parent="ub5LQ5oERzVvQmwLkIrE-1" vertex="1">
          <mxGeometry width="100" height="30" as="geometry" />
        </mxCell>
        <mxCell id="RDcDYgdUaIQG0w5Bw4jF-73" value="String.concat(" style="rounded=0;whiteSpace=wrap;html=1;fontSize=16;verticalAlign=top;align=left;fillColor=none;strokeColor=#666666;container=0;" parent="ub5LQ5oERzVvQmwLkIrE-1" vertex="1">
          <mxGeometry x="200" y="30" width="100" height="30" as="geometry" />
        </mxCell>
        <mxCell id="RDcDYgdUaIQG0w5Bw4jF-74" value="String.capitalize(" style="rounded=0;whiteSpace=wrap;html=1;fontSize=16;verticalAlign=top;align=left;fillColor=none;strokeColor=#666666;container=0;" parent="ub5LQ5oERzVvQmwLkIrE-1" vertex="1">
          <mxGeometry x="300" y="30" width="120" height="30" as="geometry" />
        </mxCell>
        <mxCell id="RDcDYgdUaIQG0w5Bw4jF-75" value="second)," style="rounded=0;whiteSpace=wrap;html=1;fontSize=16;verticalAlign=top;align=left;fillColor=none;strokeColor=#666666;container=0;" parent="ub5LQ5oERzVvQmwLkIrE-1" vertex="1">
          <mxGeometry x="420" y="30" width="70" height="30" as="geometry" />
        </mxCell>
        <mxCell id="RDcDYgdUaIQG0w5Bw4jF-76" value="third))))" style="rounded=0;whiteSpace=wrap;html=1;fontSize=16;verticalAlign=top;align=left;fillColor=none;strokeColor=#666666;container=0;" parent="ub5LQ5oERzVvQmwLkIrE-1" vertex="1">
          <mxGeometry x="430" y="60" width="60" height="30" as="geometry" />
        </mxCell>
        <mxCell id="RDcDYgdUaIQG0w5Bw4jF-77" value="String.concat(" style="rounded=0;whiteSpace=wrap;html=1;fontSize=16;verticalAlign=top;align=left;fillColor=none;strokeColor=#666666;container=0;" parent="ub5LQ5oERzVvQmwLkIrE-1" vertex="1">
          <mxGeometry x="100" width="100" height="30" as="geometry" />
        </mxCell>
        <mxCell id="RDcDYgdUaIQG0w5Bw4jF-78" value="String.capitalize(" style="rounded=0;whiteSpace=wrap;html=1;fontSize=16;verticalAlign=top;align=left;fillColor=none;strokeColor=#666666;container=0;" parent="ub5LQ5oERzVvQmwLkIrE-1" vertex="1">
          <mxGeometry x="200" width="120" height="30" as="geometry" />
        </mxCell>
        <mxCell id="RDcDYgdUaIQG0w5Bw4jF-79" value="String.uppercase(" style="rounded=0;whiteSpace=wrap;html=1;fontSize=16;verticalAlign=top;align=left;fillColor=none;strokeColor=#666666;container=0;" parent="ub5LQ5oERzVvQmwLkIrE-1" vertex="1">
          <mxGeometry x="300" y="60" width="130" height="30" as="geometry" />
        </mxCell>
        <mxCell id="RDcDYgdUaIQG0w5Bw4jF-80" value="first)," style="rounded=0;whiteSpace=wrap;html=1;fontSize=16;verticalAlign=top;align=left;fillColor=none;strokeColor=#666666;container=0;" parent="ub5LQ5oERzVvQmwLkIrE-1" vertex="1">
          <mxGeometry x="320" width="40" height="30" as="geometry" />
        </mxCell>
      </root>
    </mxGraphModel>
  </diagram>
  <diagram id="TFuVD7Vhix_ouY2RlAFK" name="FirstClassFunction">
    <mxGraphModel dx="5453" dy="2587" grid="0" gridSize="10" guides="1" tooltips="1" connect="1" arrows="1" fold="1" page="0" pageScale="1" pageWidth="850" pageHeight="1100" math="0" shadow="0">
      <root>
        <mxCell id="0" />
        <mxCell id="1" parent="0" />
        <mxCell id="HzCFvIQPQ8ys9UTgAwlD-13" value="" style="group" parent="1" vertex="1" connectable="0">
          <mxGeometry x="-290" y="-277" width="280" height="98" as="geometry" />
        </mxCell>
        <mxCell id="HzCFvIQPQ8ys9UTgAwlD-6" value="" style="group" parent="HzCFvIQPQ8ys9UTgAwlD-13" vertex="1" connectable="0">
          <mxGeometry y="30" width="280" height="68" as="geometry" />
        </mxCell>
        <mxCell id="3_bv-jiUIEM_8QNNb6uw-1" value="[1, 2, 3, 4, 5].map(" style="rounded=0;whiteSpace=wrap;html=1;fontSize=16;align=left;verticalAlign=top;strokeColor=none;" parent="HzCFvIQPQ8ys9UTgAwlD-6" vertex="1">
          <mxGeometry width="132" height="30" as="geometry" />
        </mxCell>
        <mxCell id="HzCFvIQPQ8ys9UTgAwlD-1" value="&lt;span style=&quot;color: rgb(240, 240, 240); font-family: Helvetica; font-size: 16px; font-style: normal; font-variant-ligatures: normal; font-variant-caps: normal; font-weight: 400; letter-spacing: normal; orphans: 2; text-align: left; text-indent: 0px; text-transform: none; widows: 2; word-spacing: 0px; -webkit-text-stroke-width: 0px; background-color: rgb(24, 20, 29); text-decoration-thickness: initial; text-decoration-style: initial; text-decoration-color: initial; float: none; display: inline !important;&quot;&gt;(item, index, array) {&lt;/span&gt;&lt;br style=&quot;border-color: rgb(0, 0, 0); color: rgb(240, 240, 240); font-family: Helvetica; font-size: 16px; font-style: normal; font-variant-ligatures: normal; font-variant-caps: normal; font-weight: 400; letter-spacing: normal; orphans: 2; text-align: left; text-indent: 0px; text-transform: none; widows: 2; word-spacing: 0px; -webkit-text-stroke-width: 0px; background-color: rgb(24, 20, 29); text-decoration-thickness: initial; text-decoration-style: initial; text-decoration-color: initial;&quot;&gt;&lt;span style=&quot;color: rgb(240, 240, 240); font-family: Helvetica; font-size: 16px; font-style: normal; font-variant-ligatures: normal; font-variant-caps: normal; font-weight: 400; letter-spacing: normal; orphans: 2; text-align: left; text-indent: 0px; text-transform: none; widows: 2; word-spacing: 0px; -webkit-text-stroke-width: 0px; background-color: rgb(24, 20, 29); text-decoration-thickness: initial; text-decoration-style: initial; text-decoration-color: initial; float: none; display: inline !important;&quot;&gt;&amp;nbsp; &amp;nbsp;item.add(2)&lt;br&gt;&lt;/span&gt;&lt;span style=&quot;color: rgb(240, 240, 240); font-family: Helvetica; font-size: 16px; font-style: normal; font-variant-ligatures: normal; font-variant-caps: normal; font-weight: 400; letter-spacing: normal; orphans: 2; text-align: left; text-indent: 0px; text-transform: none; widows: 2; word-spacing: 0px; -webkit-text-stroke-width: 0px; background-color: rgb(24, 20, 29); text-decoration-thickness: initial; text-decoration-style: initial; text-decoration-color: initial; float: none; display: inline !important;&quot;&gt;})&lt;/span&gt;" style="text;whiteSpace=wrap;html=1;fontSize=16;" parent="HzCFvIQPQ8ys9UTgAwlD-6" vertex="1">
          <mxGeometry x="132" width="148" height="68" as="geometry" />
        </mxCell>
        <mxCell id="HzCFvIQPQ8ys9UTgAwlD-11" value="Callback functions" style="text;html=1;strokeColor=none;fillColor=none;align=center;verticalAlign=middle;whiteSpace=wrap;rounded=0;fontSize=16;fontColor=#33FF33;" parent="HzCFvIQPQ8ys9UTgAwlD-13" vertex="1">
          <mxGeometry width="134" height="30" as="geometry" />
        </mxCell>
        <mxCell id="fcdmrjPZw395gprrasR6-1" value="" style="group" parent="1" vertex="1" connectable="0">
          <mxGeometry x="-1049" y="-377" width="157" height="67" as="geometry" />
        </mxCell>
        <mxCell id="HzCFvIQPQ8ys9UTgAwlD-3" value="x =&amp;nbsp;" style="rounded=0;whiteSpace=wrap;html=1;fontSize=16;align=left;verticalAlign=top;strokeColor=none;container=0;" parent="fcdmrjPZw395gprrasR6-1" vertex="1">
          <mxGeometry width="29" height="30" as="geometry" />
        </mxCell>
        <mxCell id="HzCFvIQPQ8ys9UTgAwlD-4" value="&lt;span style=&quot;color: rgb(240, 240, 240); font-family: Helvetica; font-size: 16px; font-style: normal; font-variant-ligatures: normal; font-variant-caps: normal; font-weight: 400; letter-spacing: normal; orphans: 2; text-align: left; text-indent: 0px; text-transform: none; widows: 2; word-spacing: 0px; -webkit-text-stroke-width: 0px; background-color: rgb(24, 20, 29); text-decoration-thickness: initial; text-decoration-style: initial; text-decoration-color: initial; float: none; display: inline !important;&quot;&gt;(p1 = &quot;&quot;, p2 = &quot;&quot;) {&lt;/span&gt;&lt;br style=&quot;border-color: rgb(0, 0, 0); color: rgb(240, 240, 240); font-family: Helvetica; font-size: 16px; font-style: normal; font-variant-ligatures: normal; font-variant-caps: normal; font-weight: 400; letter-spacing: normal; orphans: 2; text-align: left; text-indent: 0px; text-transform: none; widows: 2; word-spacing: 0px; -webkit-text-stroke-width: 0px; background-color: rgb(24, 20, 29); text-decoration-thickness: initial; text-decoration-style: initial; text-decoration-color: initial;&quot;&gt;&lt;span style=&quot;color: rgb(240, 240, 240); font-family: Helvetica; font-size: 16px; font-style: normal; font-variant-ligatures: normal; font-variant-caps: normal; font-weight: 400; letter-spacing: normal; orphans: 2; text-align: left; text-indent: 0px; text-transform: none; widows: 2; word-spacing: 0px; -webkit-text-stroke-width: 0px; background-color: rgb(24, 20, 29); text-decoration-thickness: initial; text-decoration-style: initial; text-decoration-color: initial; float: none; display: inline !important;&quot;&gt;&amp;nbsp; &amp;nbsp;p1.concat(p2)&lt;br&gt;&lt;/span&gt;&lt;span style=&quot;color: rgb(240, 240, 240); font-family: Helvetica; font-size: 16px; font-style: normal; font-variant-ligatures: normal; font-variant-caps: normal; font-weight: 400; letter-spacing: normal; orphans: 2; text-align: left; text-indent: 0px; text-transform: none; widows: 2; word-spacing: 0px; -webkit-text-stroke-width: 0px; background-color: rgb(24, 20, 29); text-decoration-thickness: initial; text-decoration-style: initial; text-decoration-color: initial; float: none; display: inline !important;&quot;&gt;}&lt;/span&gt;" style="text;whiteSpace=wrap;html=1;fontSize=16;strokeColor=none;container=0;" parent="fcdmrjPZw395gprrasR6-1" vertex="1">
          <mxGeometry x="29" width="128" height="67" as="geometry" />
        </mxCell>
        <mxCell id="fcdmrjPZw395gprrasR6-2" value="operation(&quot;hello&quot;, &quot;world&quot;)" style="rounded=0;whiteSpace=wrap;html=1;fontSize=16;align=left;verticalAlign=top;strokeColor=none;container=0;" parent="1" vertex="1">
          <mxGeometry x="-1045" y="-240" width="191" height="30" as="geometry" />
        </mxCell>
        <mxCell id="fcdmrjPZw395gprrasR6-11" value="" style="group" parent="1" vertex="1" connectable="0">
          <mxGeometry x="-1045" y="-299" width="107" height="46" as="geometry" />
        </mxCell>
        <mxCell id="HzCFvIQPQ8ys9UTgAwlD-7" value="operation = x" style="rounded=0;whiteSpace=wrap;html=1;fontSize=16;align=left;verticalAlign=top;strokeColor=none;container=0;" parent="fcdmrjPZw395gprrasR6-11" vertex="1">
          <mxGeometry width="103" height="30" as="geometry" />
        </mxCell>
        <mxCell id="fcdmrjPZw395gprrasR6-10" value="&lt;font style=&quot;font-size: 12px;&quot;&gt;+ x&lt;/font&gt;" style="rounded=0;whiteSpace=wrap;html=1;fontSize=12;align=right;verticalAlign=bottom;" parent="fcdmrjPZw395gprrasR6-11" vertex="1">
          <mxGeometry x="83" y="30" width="24" height="16" as="geometry" />
        </mxCell>
        <mxCell id="fcdmrjPZw395gprrasR6-13" value="" style="group" parent="1" vertex="1" connectable="0">
          <mxGeometry x="-1048" y="-182" width="166" height="46" as="geometry" />
        </mxCell>
        <mxCell id="fcdmrjPZw395gprrasR6-8" value="operation2 = x(&quot;a&quot;, &quot;b&quot;)" style="rounded=0;whiteSpace=wrap;html=1;fontSize=16;align=left;verticalAlign=top;strokeColor=none;container=0;" parent="fcdmrjPZw395gprrasR6-13" vertex="1">
          <mxGeometry width="166" height="30" as="geometry" />
        </mxCell>
        <mxCell id="fcdmrjPZw395gprrasR6-9" value="&lt;font style=&quot;font-size: 12px;&quot;&gt;+ x&lt;/font&gt;" style="rounded=0;whiteSpace=wrap;html=1;fontSize=12;align=right;verticalAlign=bottom;" parent="fcdmrjPZw395gprrasR6-13" vertex="1">
          <mxGeometry x="92" y="30" width="74" height="16" as="geometry" />
        </mxCell>
        <mxCell id="RL8WY-M70NBrG53EMajG-1" value="" style="rounded=0;whiteSpace=wrap;html=1;fontSize=16;" parent="1" vertex="1">
          <mxGeometry x="-741" y="-205" width="378" height="262" as="geometry" />
        </mxCell>
        <mxCell id="RL8WY-M70NBrG53EMajG-2" value="" style="rounded=0;whiteSpace=wrap;html=1;fontSize=16;" parent="1" vertex="1">
          <mxGeometry x="-725" y="-187" width="337" height="50" as="geometry" />
        </mxCell>
        <mxCell id="RL8WY-M70NBrG53EMajG-3" value="" style="rounded=0;whiteSpace=wrap;html=1;fontSize=16;" parent="1" vertex="1">
          <mxGeometry x="-685" y="-179" width="63" height="34" as="geometry" />
        </mxCell>
      </root>
    </mxGraphModel>
  </diagram>
</mxfile>
